<svg width="181" height="50" viewBox="0 0 181 50" fill="none" xmlns="http://www.w3.org/2000/svg">
<path d="M12.416 30.232C10.0693 30.232 8.02133 29.8693 6.272 29.144C4.544 28.4187 3.2 27.4267 2.24 26.168C1.30133 24.888 0.832 23.4373 0.832 21.816C0.832 20.4933 1.06667 19.288 1.536 18.2C2.00533 17.112 2.624 16.2053 3.392 15.48C4.18133 14.7547 5.04533 14.2747 5.984 14.04C6.13333 14.0187 6.208 14.072 6.208 14.2C6.208 14.3067 6.15467 14.392 6.048 14.456C4.93867 15.1173 4.08533 16.0667 3.488 17.304C2.912 18.5413 2.624 19.9173 2.624 21.432C2.624 23.0747 3.05067 24.4933 3.904 25.688C4.75733 26.8613 5.92 27.7573 7.392 28.376C8.88533 29.016 10.56 29.336 12.416 29.336C14.016 29.336 15.5307 29.048 16.96 28.472C18.4107 27.9173 19.744 27.1493 20.96 26.168C22.176 25.1867 23.264 24.0773 24.224 22.84C25.2053 21.5813 26.0267 20.2693 26.688 18.904C26.8373 18.584 26.9867 18.2747 27.136 17.976C27.2853 17.6773 27.4347 17.3787 27.584 17.08C27.072 17.0587 26.6027 17.0373 26.176 17.016C25.7707 16.9947 25.4933 16.984 25.344 16.984C24.768 16.984 24.1493 17.0267 23.488 17.112C22.848 17.176 22.24 17.3147 21.664 17.528C21.1093 17.7413 20.6507 18.072 20.288 18.52C20.1387 18.6693 20.0427 18.7867 20 18.872C19.9787 18.9573 19.936 19 19.872 19C19.7867 19 19.712 18.936 19.648 18.808C19.584 18.6587 19.5947 18.4987 19.68 18.328C20.1707 17.24 20.864 16.504 21.76 16.12C22.656 15.7147 23.6587 15.512 24.768 15.512C25.0027 15.512 25.44 15.5547 26.08 15.64C26.7413 15.704 27.4347 15.7787 28.16 15.864C29.0987 13.9653 29.952 12.248 30.72 10.712C31.5093 9.176 32.2453 7.896 32.928 6.872C31.392 6.36 29.76 5.912 28.032 5.528C26.304 5.12267 24.448 4.92 22.464 4.92C20.992 4.92 19.6587 5.12267 18.464 5.528C17.2693 5.93333 16.2453 6.47733 15.392 7.16C14.56 7.84267 13.92 8.6 13.472 9.432C13.024 10.264 12.8 11.096 12.8 11.928C12.8 12.8667 12.9813 13.6133 13.344 14.168C13.7067 14.7227 14.176 15.128 14.752 15.384C15.3493 15.6187 15.9573 15.736 16.576 15.736C17.4933 15.736 18.272 15.512 18.912 15.064C19.5733 14.616 20.096 14.1147 20.48 13.56C20.864 12.984 21.0987 12.5147 21.184 12.152C21.2693 11.8107 21.3973 11.64 21.568 11.64C21.824 11.64 21.9307 11.7893 21.888 12.088C21.76 13.0267 21.4293 13.8373 20.896 14.52C20.3627 15.2027 19.712 15.7253 18.944 16.088C18.176 16.4293 17.3653 16.6 16.512 16.6C15.6373 16.6 14.7947 16.3867 13.984 15.96C13.1733 15.5333 12.512 14.9147 12 14.104C11.488 13.2933 11.232 12.312 11.232 11.16C11.232 10.2213 11.4347 9.29333 11.84 8.376C12.2667 7.43733 12.896 6.584 13.728 5.816C14.5813 5.02666 15.6587 4.39733 16.96 3.928C18.2613 3.45867 19.7973 3.224 21.568 3.224C22.8267 3.224 24.1173 3.37333 25.44 3.672C26.7627 3.94933 28.096 4.312 29.44 4.76C30.8053 5.18667 32.1493 5.63467 33.472 6.104C33.92 5.528 34.3467 5.09067 34.752 4.792C35.1573 4.472 35.5627 4.312 35.968 4.312C36.1387 4.312 36.256 4.35467 36.32 4.44C36.384 4.504 36.416 4.568 36.416 4.632C36.416 4.71733 36.384 4.81333 36.32 4.92C36.256 5.02666 36.1387 5.08 35.968 5.08C35.264 5.08 34.6027 5.47467 33.984 6.264C35.52 6.776 36.992 7.23467 38.4 7.64C39.8293 8.024 41.152 8.216 42.368 8.216C43.3067 8.216 43.9253 8.12 44.224 7.928C44.5227 7.71467 44.672 7.42667 44.672 7.064C44.672 6.82933 44.7467 6.712 44.896 6.712C45.0027 6.712 45.0987 6.78667 45.184 6.936C45.2907 7.064 45.344 7.224 45.344 7.416C45.344 7.928 45.056 8.344 44.48 8.664C43.9253 8.984 43.1467 9.144 42.144 9.144C40.8213 9.144 39.4453 8.93067 38.016 8.504C36.5867 8.056 35.072 7.56533 33.472 7.032C32.896 7.992 32.3307 9.25067 31.776 10.808C31.2213 12.344 30.5707 14.0827 29.824 16.024C30.7413 16.1093 31.712 16.184 32.736 16.248C33.76 16.2907 34.592 16.312 35.232 16.312C35.4453 16.312 35.552 16.376 35.552 16.504C35.552 16.6747 35.3067 16.824 34.816 16.952C34.496 17.0373 33.952 17.1013 33.184 17.144C32.4373 17.1867 31.6587 17.208 30.848 17.208C30.6773 17.208 30.464 17.208 30.208 17.208C29.952 17.1867 29.6747 17.176 29.376 17.176C29.184 17.6667 28.9813 18.168 28.768 18.68C28.576 19.1707 28.3627 19.6827 28.128 20.216C27.232 22.328 26.1333 24.0453 24.832 25.368C23.552 26.6693 22.176 27.672 20.704 28.376C19.2533 29.1013 17.8027 29.592 16.352 29.848C14.9227 30.104 13.6107 30.232 12.416 30.232ZM35.5755 20.824C35.9382 19.992 36.3435 19.1813 36.7915 18.392C37.2608 17.6027 37.8262 16.952 38.4875 16.44C39.1488 15.928 39.9382 15.672 40.8555 15.672C42.0075 15.672 42.8502 16.0027 43.3835 16.664C43.9168 17.3253 44.1835 18.0827 44.1835 18.936C44.1835 19.8533 44.0128 20.8027 43.6715 21.784C43.3302 22.744 42.8502 23.6507 42.2315 24.504C41.6342 25.336 40.9195 26.0187 40.0875 26.552C39.2555 27.064 38.3488 27.32 37.3675 27.32C36.7488 27.32 36.3008 27.1707 36.0235 26.872C35.7462 26.552 35.6075 26.1573 35.6075 25.688C35.6075 25.2613 35.7035 24.8133 35.8955 24.344C36.1088 23.8747 36.4182 23.4373 36.8235 23.032C37.5062 22.328 38.3062 21.752 39.2235 21.304C40.1622 20.856 41.1542 20.632 42.1995 20.632C42.3275 20.12 42.3915 19.544 42.3915 18.904C42.3915 18.2853 42.2635 17.7307 42.0075 17.24C41.7515 16.728 41.2288 16.472 40.4395 16.472C39.7568 16.472 39.1275 16.7173 38.5515 17.208C37.9968 17.6987 37.4955 18.3067 37.0475 19.032C36.6208 19.736 36.2582 20.4293 35.9595 21.112C35.7035 21.112 35.5755 21.016 35.5755 20.824ZM42.0075 21.208C41.0475 21.208 40.1408 21.464 39.2875 21.976C38.4342 22.4667 37.7515 23.032 37.2395 23.672C37.0262 23.9493 36.8342 24.2693 36.6635 24.632C36.5142 24.9947 36.4395 25.336 36.4395 25.656C36.4395 25.912 36.5035 26.136 36.6315 26.328C36.7808 26.4987 37.0155 26.584 37.3355 26.584C37.8688 26.584 38.4342 26.328 39.0315 25.816C39.6502 25.304 40.2262 24.6427 40.7595 23.832C41.3142 23 41.7302 22.1253 42.0075 21.208ZM45.545 20.728C45.7157 20.3653 45.9397 19.7893 46.217 19C46.4943 18.1893 46.7823 17.2933 47.081 16.312C47.3797 15.3307 47.6037 14.4027 47.753 13.528C47.817 13.1867 47.9343 12.9413 48.105 12.792C48.2757 12.6213 48.457 12.536 48.649 12.536C48.9263 12.536 49.1823 12.6747 49.417 12.952C49.6517 13.208 49.769 13.5813 49.769 14.072C49.769 14.6693 49.5877 15.1813 49.225 15.608C48.8837 16.0347 48.457 16.44 47.945 16.824C48.1583 16.8453 48.3823 16.8667 48.617 16.888C48.8517 16.888 49.1077 16.888 49.385 16.888C50.3877 16.888 51.3797 16.824 52.361 16.696C52.4037 16.824 52.425 16.92 52.425 16.984C52.425 17.2613 52.3397 17.6133 52.169 18.04C52.0197 18.4667 51.8597 18.8507 51.689 19.192C51.6037 19.384 51.433 19.736 51.177 20.248C50.921 20.7387 50.6437 21.304 50.345 21.944C50.0463 22.5627 49.7903 23.1813 49.577 23.8C49.385 24.3973 49.289 24.9093 49.289 25.336C49.289 25.8907 49.5023 26.168 49.929 26.168C50.3343 26.168 50.8997 25.6987 51.625 24.76C52.3503 23.8 53.0757 22.488 53.801 20.824C54.057 20.824 54.185 20.92 54.185 21.112C53.9503 21.688 53.6517 22.3173 53.289 23C52.9477 23.6827 52.5637 24.3333 52.137 24.952C51.7103 25.5493 51.2517 26.0507 50.761 26.456C50.2703 26.84 49.7583 27.032 49.225 27.032C48.8197 27.032 48.4143 26.872 48.009 26.552C47.6037 26.2107 47.401 25.6667 47.401 24.92C47.401 24.2587 47.529 23.6187 47.785 23C48.041 22.36 48.329 21.7627 48.649 21.208C48.969 20.6533 49.257 20.1627 49.513 19.736C49.769 19.3093 49.897 18.968 49.897 18.712C49.897 18.328 49.6517 18.0507 49.161 17.88C48.6917 17.7093 48.073 17.6133 47.305 17.592C46.921 18.5733 46.633 19.2987 46.441 19.768C46.249 20.2373 46.0677 20.6853 45.897 21.112C45.5557 21.112 45.4383 20.984 45.545 20.728ZM54.6903 27C53.9009 27 53.3463 26.776 53.0263 26.328C52.7063 25.8587 52.5463 25.3253 52.5463 24.728C52.5463 24.408 52.5783 24.088 52.6423 23.768C52.7276 23.4267 52.8236 23.1173 52.9303 22.84L55.0743 17.368C55.1383 17.1973 55.1703 17.048 55.1703 16.92C55.1703 16.7067 55.1169 16.5253 55.0103 16.376C54.9036 16.2053 54.8289 16.088 54.7863 16.024L56.5463 15.96C56.8663 15.9387 57.0903 15.9813 57.2183 16.088C57.3676 16.1733 57.4423 16.28 57.4423 16.408C57.4423 16.536 57.3676 16.7707 57.2183 17.112C57.0049 17.624 56.7169 18.264 56.3543 19.032C55.9916 19.8 55.6289 20.5893 55.2663 21.4C54.9249 22.2107 54.6263 22.968 54.3703 23.672C54.1356 24.376 54.0182 24.92 54.0182 25.304C54.0182 25.5813 54.0823 25.816 54.2103 26.008C54.3596 26.2 54.6049 26.296 54.9463 26.296C55.3943 26.296 55.8316 26.1253 56.2583 25.784C56.7063 25.4213 57.1223 24.9627 57.5063 24.408C57.8903 23.8533 58.2423 23.256 58.5623 22.616C58.9036 21.976 59.1916 21.3787 59.4263 20.824C59.6823 20.824 59.8103 20.92 59.8103 21.112C59.5969 21.6453 59.3196 22.2533 58.9783 22.936C58.6369 23.6187 58.2423 24.2693 57.7943 24.888C57.3676 25.4853 56.8876 25.9867 56.3543 26.392C55.8423 26.7973 55.2876 27 54.6903 27ZM57.5383 13.976C57.2609 13.976 57.0156 13.8693 56.8023 13.656C56.6103 13.4427 56.5143 13.1867 56.5143 12.888C56.5143 12.5253 56.6636 12.2053 56.9623 11.928C57.2609 11.6293 57.5916 11.48 57.9543 11.48C58.2529 11.48 58.5089 11.576 58.7223 11.768C58.9356 11.96 59.0423 12.2053 59.0423 12.504C59.0423 12.888 58.8929 13.2293 58.5943 13.528C58.2956 13.8267 57.9436 13.976 57.5383 13.976ZM66.7473 27C66.0219 27 65.4886 26.7547 65.1473 26.264C64.8059 25.7733 64.6353 25.1973 64.6353 24.536C64.6353 24.344 64.6459 24.152 64.6673 23.96C64.6886 23.7467 64.7313 23.5333 64.7953 23.32C64.4966 23.7893 64.1446 24.312 63.7393 24.888C63.3553 25.4427 62.9073 25.9333 62.3953 26.36C61.9046 26.7653 61.3499 26.968 60.7313 26.968C60.4539 26.968 60.1339 26.904 59.7713 26.776C59.4299 26.648 59.1206 26.4027 58.8433 26.04C58.5873 25.6773 58.4593 25.144 58.4593 24.44C58.4593 23.5227 58.6619 22.552 59.0673 21.528C59.4726 20.504 60.0273 19.544 60.7313 18.648C61.4353 17.7307 62.2353 16.9947 63.1313 16.44C64.0273 15.864 64.9553 15.576 65.9153 15.576C66.6833 15.576 67.4086 15.7787 68.0913 16.184C68.4113 15.5867 68.7526 14.9253 69.1153 14.2C69.4779 13.4533 69.8406 12.7173 70.2033 11.992C70.5659 11.2667 70.8859 10.6053 71.1633 10.008C71.4406 9.38933 71.6539 8.92 71.8033 8.6C72.1233 7.85333 72.4219 7.384 72.6993 7.192C72.9979 6.97867 73.3499 6.872 73.7553 6.872C73.9899 6.872 74.2459 6.904 74.5233 6.968C74.8219 7.01067 75.1099 7.02133 75.3873 7C75.2806 7.10667 75.0353 7.45867 74.6513 8.056C74.2673 8.65333 73.7979 9.432 73.2433 10.392C72.6886 11.3307 72.0913 12.3653 71.4513 13.496C70.8326 14.6267 70.2139 15.7893 69.5953 16.984C68.9979 18.1573 68.4433 19.288 67.9313 20.376C67.4193 21.464 67.0139 22.424 66.7153 23.256C66.4166 24.088 66.2673 24.7173 66.2673 25.144C66.2673 25.4213 66.3313 25.6667 66.4593 25.88C66.5873 26.072 66.8006 26.168 67.0993 26.168C67.5046 26.168 67.9206 25.9653 68.3473 25.56C68.7739 25.1547 69.1793 24.6533 69.5633 24.056C69.9686 23.4373 70.3206 22.84 70.6193 22.264C70.9393 21.6667 71.1739 21.1867 71.3233 20.824C71.5793 20.824 71.7073 20.92 71.7073 21.112C71.5153 21.56 71.2593 22.1147 70.9393 22.776C70.6193 23.4373 70.2459 24.088 69.8193 24.728C69.3926 25.368 68.9126 25.912 68.3793 26.36C67.8673 26.7867 67.3233 27 66.7473 27ZM60.9553 26.04C61.2539 26.04 61.6273 25.88 62.0753 25.56C62.5233 25.2187 63.0033 24.6853 63.5153 23.96C64.1126 23.1067 64.7953 22.04 65.5633 20.76C66.3313 19.48 67.0886 18.1253 67.8353 16.696C67.6859 16.568 67.5259 16.472 67.3553 16.408C67.1846 16.344 66.9499 16.312 66.6513 16.312C66.1606 16.312 65.6166 16.5253 65.0193 16.952C64.4433 17.3573 63.8566 17.8907 63.2593 18.552C62.6833 19.2133 62.1499 19.928 61.6593 20.696C61.1899 21.464 60.8059 22.2107 60.5073 22.936C60.2299 23.64 60.0913 24.248 60.0913 24.76C60.0913 25.6133 60.3793 26.04 60.9553 26.04ZM71.3255 20.824C71.6882 19.992 72.0935 19.1813 72.5415 18.392C73.0108 17.6027 73.5762 16.952 74.2375 16.44C74.8988 15.928 75.6882 15.672 76.6055 15.672C77.7575 15.672 78.6002 16.0027 79.1335 16.664C79.6668 17.3253 79.9335 18.0827 79.9335 18.936C79.9335 19.8533 79.7628 20.8027 79.4215 21.784C79.0802 22.744 78.6002 23.6507 77.9815 24.504C77.3842 25.336 76.6695 26.0187 75.8375 26.552C75.0055 27.064 74.0988 27.32 73.1175 27.32C72.4988 27.32 72.0508 27.1707 71.7735 26.872C71.4962 26.552 71.3575 26.1573 71.3575 25.688C71.3575 25.2613 71.4535 24.8133 71.6455 24.344C71.8588 23.8747 72.1682 23.4373 72.5735 23.032C73.2562 22.328 74.0562 21.752 74.9735 21.304C75.9122 20.856 76.9042 20.632 77.9495 20.632C78.0775 20.12 78.1415 19.544 78.1415 18.904C78.1415 18.2853 78.0135 17.7307 77.7575 17.24C77.5015 16.728 76.9788 16.472 76.1895 16.472C75.5068 16.472 74.8775 16.7173 74.3015 17.208C73.7468 17.6987 73.2455 18.3067 72.7975 19.032C72.3708 19.736 72.0082 20.4293 71.7095 21.112C71.4535 21.112 71.3255 21.016 71.3255 20.824ZM77.7575 21.208C76.7975 21.208 75.8908 21.464 75.0375 21.976C74.1842 22.4667 73.5015 23.032 72.9895 23.672C72.7762 23.9493 72.5842 24.2693 72.4135 24.632C72.2642 24.9947 72.1895 25.336 72.1895 25.656C72.1895 25.912 72.2535 26.136 72.3815 26.328C72.5308 26.4987 72.7655 26.584 73.0855 26.584C73.6188 26.584 74.1842 26.328 74.7815 25.816C75.4002 25.304 75.9762 24.6427 76.5095 23.832C77.0642 23 77.4802 22.1253 77.7575 21.208ZM95.2758 28.888C93.0571 28.888 91.2224 28.5787 89.7718 27.96C88.3424 27.3413 87.2758 26.5307 86.5718 25.528C85.8891 24.5253 85.5478 23.4587 85.5478 22.328C85.5478 21.048 85.8784 19.8853 86.5398 18.84C87.2011 17.7947 88.0651 16.888 89.1318 16.12C90.2198 15.352 91.4144 14.744 92.7158 14.296C94.0171 13.848 95.2971 13.592 96.5558 13.528C95.4464 13.1227 94.5398 12.568 93.8358 11.864C93.1531 11.1387 92.8118 10.3493 92.8118 9.496C92.8118 8.62133 93.0784 7.78933 93.6118 7C94.1664 6.18933 94.9024 5.45333 95.8198 4.792C96.7371 4.10933 97.7718 3.52267 98.9238 3.032C100.097 2.54133 101.313 2.168 102.572 1.912C103.83 1.63467 105.046 1.496 106.22 1.496C108.118 1.496 109.633 1.816 110.764 2.456C111.894 3.096 112.46 3.91733 112.46 4.92C112.46 5.83733 111.958 6.744 110.956 7.64C109.974 8.536 108.609 9.176 106.86 9.56C106.518 9.624 106.294 9.656 106.188 9.656C105.953 9.656 105.836 9.56 105.836 9.368C105.836 9.304 105.868 9.26133 105.932 9.24C106.017 9.19733 106.188 9.13333 106.444 9.048C107.702 8.62133 108.705 8.024 109.452 7.256C110.198 6.46667 110.572 5.63467 110.572 4.76C110.572 4.01333 110.209 3.416 109.484 2.968C108.78 2.49866 107.713 2.264 106.284 2.264C105.004 2.264 103.713 2.44533 102.412 2.808C101.11 3.17067 99.9158 3.68267 98.8278 4.344C97.7398 5.00533 96.8651 5.76267 96.2038 6.616C95.5424 7.46933 95.2118 8.39733 95.2118 9.4C95.2118 10.1253 95.4251 10.712 95.8518 11.16C96.2784 11.608 96.8224 11.9707 97.4838 12.248C98.1451 12.504 98.8278 12.7173 99.5318 12.888C100.257 13.0373 100.918 13.208 101.516 13.4C101.729 13.464 101.868 13.5493 101.932 13.656C101.996 13.7627 102.028 13.8693 102.028 13.976C102.028 14.2533 101.868 14.488 101.548 14.68C101.249 14.872 100.822 14.968 100.268 14.968C99.9264 14.968 99.5424 14.968 99.1158 14.968C98.7104 14.9467 98.2731 14.936 97.8038 14.936C97.1424 14.936 96.4384 14.968 95.6918 15.032C94.9664 15.096 94.1664 15.2667 93.2917 15.544C92.1824 15.8853 91.2118 16.4187 90.3798 17.144C89.5691 17.8693 88.9398 18.6693 88.4918 19.544C88.0438 20.4187 87.8198 21.2827 87.8198 22.136C87.8198 23.2453 88.0758 24.248 88.5878 25.144C89.0998 26.04 89.9104 26.744 91.0198 27.256C92.1291 27.7893 93.5904 28.056 95.4038 28.056C97.0678 28.056 98.6784 27.8427 100.236 27.416C101.793 26.9893 103.233 26.4453 104.556 25.784C105.878 25.1013 107.009 24.3973 107.948 23.672C108.716 23.0533 109.334 22.424 109.804 21.784C110.294 21.144 110.54 20.5893 110.54 20.12C110.54 19.5227 110.124 19.16 109.292 19.032C109.078 19.0107 108.972 18.9467 108.972 18.84C108.972 18.6693 109.121 18.584 109.42 18.584C110.038 18.584 110.582 18.7973 111.052 19.224C111.542 19.6293 111.788 20.1413 111.788 20.76C111.788 21.976 110.924 23.256 109.196 24.6C108.15 25.432 106.87 26.168 105.356 26.808C103.862 27.448 102.241 27.9493 100.492 28.312C98.7638 28.696 97.0251 28.888 95.2758 28.888ZM109.034 37.208C107.925 37.208 107.136 36.984 106.666 36.536C106.197 36.1093 105.962 35.5973 105.962 35C105.962 34.0827 106.304 33.2293 106.986 32.44C107.648 31.672 108.469 31.0533 109.451 30.584C110.56 30.072 111.819 29.656 113.227 29.336C114.656 29.016 116.021 28.664 117.323 28.28C117.728 27.576 118.101 26.776 118.443 25.88C118.784 24.9627 119.093 24.0773 119.371 23.224C119.648 22.3493 119.872 21.6347 120.043 21.08C119.787 21.5493 119.456 22.1253 119.051 22.808C118.667 23.4693 118.229 24.12 117.739 24.76C117.248 25.4 116.715 25.9333 116.139 26.36C115.584 26.7867 114.997 27 114.379 27C114.144 27 113.856 26.9467 113.515 26.84C113.195 26.7333 112.907 26.5413 112.651 26.264C112.416 25.9653 112.299 25.528 112.299 24.952C112.299 24.3973 112.469 23.7893 112.811 23.128C113.152 22.4453 113.493 21.7733 113.835 21.112C113.728 21.112 113.632 21.1013 113.547 21.08C113.483 21.0587 113.451 20.9733 113.451 20.824C113.515 20.696 113.643 20.4187 113.835 19.992C114.027 19.5653 114.24 19.096 114.475 18.584C114.731 18.072 114.955 17.624 115.147 17.24C115.381 16.7493 115.637 16.408 115.915 16.216C116.213 16.024 116.501 15.928 116.779 15.928H118.763C118.613 16.056 118.421 16.2053 118.187 16.376C117.973 16.5253 117.771 16.76 117.579 17.08C117.003 18.0613 116.501 19.0107 116.075 19.928C115.648 20.824 115.189 21.784 114.699 22.808C114.464 23.2987 114.293 23.7467 114.187 24.152C114.08 24.5573 114.027 24.9093 114.027 25.208C114.027 25.912 114.261 26.264 114.731 26.264C115.243 26.264 115.861 25.848 116.587 25.016C117.184 24.312 117.781 23.48 118.379 22.52C118.997 21.5387 119.584 20.536 120.139 19.512C120.715 18.4667 121.216 17.5067 121.643 16.632C121.877 16.1627 122.293 15.928 122.891 15.928H124.651C124.032 16.3547 123.552 16.9093 123.211 17.592C122.891 18.2747 122.528 19.1493 122.123 20.216C121.675 21.3893 121.248 22.6053 120.843 23.864C120.437 25.1227 119.989 26.4133 119.499 27.736C120.544 27.3733 121.419 26.904 122.123 26.328C122.827 25.752 123.445 25.016 123.979 24.12C124.533 23.2027 125.088 22.104 125.643 20.824C125.899 20.824 126.027 20.92 126.027 21.112C125.557 22.0933 125.131 22.9573 124.747 23.704C124.363 24.4507 123.936 25.112 123.467 25.688C122.997 26.2427 122.411 26.7547 121.707 27.224C121.003 27.7147 120.096 28.184 118.987 28.632C118.475 29.5493 117.888 30.4987 117.227 31.48C116.587 32.4827 115.851 33.4107 115.019 34.264C114.208 35.1387 113.301 35.8427 112.299 36.376C111.317 36.9307 110.229 37.208 109.034 37.208ZM108.266 36.568C108.97 36.568 109.696 36.3547 110.442 35.928C111.189 35.5013 111.914 34.9573 112.618 34.296C113.322 33.656 113.963 32.9947 114.539 32.312C115.136 31.6507 115.616 31.064 115.979 30.552C116.085 30.4027 116.203 30.2107 116.331 29.976C116.459 29.7413 116.587 29.5173 116.715 29.304C115.669 29.5813 114.517 29.88 113.259 30.2C112.021 30.5413 110.944 30.9147 110.026 31.32C109.002 31.7467 108.202 32.3547 107.626 33.144C107.029 33.9333 106.73 34.6373 106.73 35.256C106.73 35.64 106.858 35.9493 107.114 36.184C107.349 36.44 107.733 36.568 108.266 36.568ZM126.566 27C126.331 27 126.043 26.9467 125.702 26.84C125.382 26.7333 125.094 26.5413 124.838 26.264C124.603 25.9653 124.486 25.528 124.486 24.952C124.486 24.3973 124.667 23.7573 125.03 23.032C125.393 22.3067 125.713 21.6667 125.99 21.112C125.755 21.112 125.638 21.016 125.638 20.824C125.659 20.76 125.755 20.5573 125.926 20.216C126.097 19.8747 126.299 19.4693 126.534 19C126.769 18.5307 126.993 18.0827 127.206 17.656C127.441 17.208 127.622 16.8667 127.75 16.632C128.006 16.1627 128.411 15.928 128.966 15.928H130.95C130.587 16.2053 130.257 16.5147 129.958 16.856C129.681 17.176 129.329 17.7733 128.902 18.648C128.902 18.648 128.827 18.7973 128.678 19.096C128.529 19.3947 128.337 19.7787 128.102 20.248C127.889 20.696 127.665 21.1547 127.43 21.624C127.217 22.0933 127.035 22.488 126.886 22.808C126.609 23.4053 126.427 23.8853 126.342 24.248C126.257 24.5893 126.214 24.9093 126.214 25.208C126.214 25.912 126.449 26.264 126.918 26.264C127.43 26.264 128.049 25.848 128.774 25.016C129.371 24.312 129.958 23.4693 130.534 22.488C131.11 21.5067 131.654 20.4933 132.166 19.448C132.699 18.4027 133.169 17.464 133.574 16.632C133.809 16.1627 134.225 15.928 134.822 15.928H136.582C136.113 16.312 135.633 16.888 135.142 17.656C134.673 18.424 134.15 19.4053 133.574 20.6C133.425 20.92 133.233 21.3253 132.998 21.816C132.763 22.3067 132.55 22.8293 132.358 23.384C132.187 23.9387 132.102 24.4933 132.102 25.048C132.102 25.7947 132.369 26.168 132.902 26.168C133.627 26.168 134.331 25.6667 135.014 24.664C135.697 23.6613 136.369 22.3813 137.03 20.824C137.201 20.824 137.297 20.8347 137.318 20.856C137.361 20.8773 137.393 20.9627 137.414 21.112C137.179 21.688 136.891 22.3173 136.55 23C136.23 23.6613 135.857 24.3013 135.43 24.92C135.025 25.5387 134.566 26.04 134.054 26.424C133.563 26.808 133.019 27 132.422 27C131.889 27 131.451 26.808 131.11 26.424C130.769 26.0187 130.598 25.4533 130.598 24.728C130.598 24.152 130.705 23.5333 130.918 22.872C130.555 23.512 130.139 24.152 129.67 24.792C129.201 25.432 128.699 25.9653 128.166 26.392C127.633 26.7973 127.099 27 126.566 27ZM138.996 27.16C138.122 27.16 137.503 26.8933 137.14 26.36C136.778 25.8267 136.596 25.176 136.596 24.408C136.596 23.8747 136.65 23.3733 136.756 22.904C136.884 22.4347 137.066 21.9013 137.3 21.304H137.236C137.066 21.304 136.98 21.2187 136.98 21.048C136.98 20.9627 137.066 20.7173 137.236 20.312C137.428 19.9067 137.663 19.416 137.94 18.84C138.239 18.264 138.538 17.6773 138.836 17.08C139.156 16.4827 139.444 15.9493 139.7 15.48C140.127 14.6907 140.596 13.88 141.108 13.048C141.62 12.1947 142.122 11.384 142.612 10.616C143.124 9.848 143.551 9.21867 143.892 8.728C144.66 7.66133 145.375 7.128 146.036 7.128H146.196C146.388 7.128 146.602 7.16 146.836 7.224C147.092 7.288 147.327 7.29867 147.54 7.256C147.22 7.59733 146.73 8.216 146.068 9.112C145.428 9.98667 144.724 10.9893 143.956 12.12C143.636 12.5893 143.231 13.2187 142.74 14.008C142.271 14.7973 141.77 15.6827 141.236 16.664C140.703 17.6453 140.202 18.648 139.732 19.672C139.284 20.6747 138.911 21.656 138.612 22.616C138.314 23.5547 138.164 24.3973 138.164 25.144C138.164 25.6347 138.25 25.976 138.42 26.168C138.591 26.36 138.804 26.456 139.06 26.456C139.38 26.456 139.754 26.2747 140.18 25.912C140.628 25.528 141.076 25.0373 141.524 24.44C141.994 23.8213 142.42 23.1493 142.804 22.424C143.188 21.6773 143.498 20.9307 143.732 20.184C143.988 19.416 144.116 18.712 144.116 18.072C144.116 17.4533 143.999 17.0053 143.764 16.728C143.551 16.4507 143.263 16.312 142.9 16.312C142.751 16.312 142.602 16.3547 142.452 16.44C142.303 16.504 142.175 16.536 142.068 16.536C141.962 16.536 141.908 16.4827 141.908 16.376C141.908 16.2693 142.015 16.152 142.228 16.024C142.463 15.896 142.804 15.832 143.252 15.832C143.658 15.832 144.063 15.9387 144.468 16.152C144.895 16.3653 145.247 16.7173 145.524 17.208C145.802 17.6773 145.94 18.296 145.94 19.064C145.94 19.9813 145.727 20.92 145.3 21.88C144.874 22.8187 144.319 23.6933 143.636 24.504C142.954 25.2933 142.196 25.9333 141.364 26.424C140.554 26.9147 139.764 27.16 138.996 27.16ZM149.433 27C148.558 27 147.908 26.6907 147.481 26.072C147.076 25.432 146.873 24.664 146.873 23.768C146.873 22.936 147.033 22.072 147.353 21.176C147.694 20.1947 148.164 19.2987 148.761 18.488C149.38 17.6773 150.052 17.0267 150.777 16.536C151.524 16.024 152.26 15.768 152.985 15.768C153.86 15.768 154.5 16.0667 154.905 16.664C155.332 17.2613 155.545 18.0187 155.545 18.936C155.545 19.576 155.438 20.248 155.225 20.952C155.012 21.656 154.724 22.3493 154.361 23.032C154.638 23.3093 155.033 23.448 155.545 23.448C156.142 23.448 156.654 23.256 157.081 22.872C157.508 22.488 157.924 21.8053 158.329 20.824C158.585 20.824 158.713 20.92 158.713 21.112C158.308 22.0933 157.838 22.8187 157.305 23.288C156.793 23.736 156.132 23.9493 155.321 23.928C154.83 23.928 154.425 23.7893 154.105 23.512C153.508 24.4933 152.793 25.3253 151.961 26.008C151.15 26.6693 150.308 27 149.433 27ZM149.881 26.296C150.372 26.296 150.862 26.0933 151.353 25.688C151.844 25.2613 152.292 24.7813 152.697 24.248C153.102 23.7147 153.39 23.256 153.561 22.872C153.22 22.2533 153.017 21.7947 152.953 21.496C152.91 21.176 152.889 20.9413 152.889 20.792C152.889 20.3867 152.996 20.0773 153.209 19.864C153.422 19.6507 153.636 19.544 153.849 19.544C154.148 19.544 154.404 19.672 154.617 19.928C154.66 19.6933 154.692 19.48 154.713 19.288C154.734 19.0747 154.745 18.872 154.745 18.68C154.745 18.1253 154.638 17.6773 154.425 17.336C154.233 16.9733 153.924 16.792 153.497 16.792C153.049 16.792 152.58 16.984 152.089 17.368C151.598 17.752 151.129 18.264 150.681 18.904C150.254 19.544 149.881 20.2587 149.561 21.048C149.284 21.7093 149.07 22.3387 148.921 22.936C148.772 23.512 148.697 24.0453 148.697 24.536C148.697 25.0693 148.793 25.496 148.985 25.816C149.177 26.136 149.476 26.296 149.881 26.296ZM159.382 27.224C158.72 27.224 158.262 27.0533 158.006 26.712C157.75 26.3707 157.622 25.9333 157.622 25.4C157.622 24.8453 157.718 24.216 157.91 23.512C158.102 22.808 158.358 22.0187 158.678 21.144C158.443 21.144 158.326 21.0373 158.326 20.824C158.496 20.3973 158.678 19.9173 158.87 19.384C159.083 18.8293 159.19 18.2107 159.19 17.528C159.19 17.1867 159.147 16.8987 159.062 16.664C158.976 16.4293 158.848 16.2907 158.678 16.248C158.678 16.248 158.784 16.2267 158.998 16.184C159.232 16.1413 159.478 16.0987 159.734 16.056C159.99 16.0133 160.16 15.992 160.246 15.992C160.374 15.9707 160.491 15.96 160.598 15.96C160.704 15.9387 160.8 15.928 160.886 15.928C161.099 15.928 161.238 16.0133 161.302 16.184C161.387 16.3547 161.419 16.728 161.398 17.304C161.376 17.8373 161.27 18.488 161.078 19.256C160.886 20.0027 160.683 20.6533 160.47 21.208C160.192 21.9333 159.936 22.6693 159.702 23.416C159.467 24.1627 159.35 24.7813 159.35 25.272C159.35 25.6987 159.467 25.976 159.702 26.104C159.872 26.168 160.022 26.2 160.15 26.2C160.64 26.2 161.12 25.9653 161.59 25.496C162.059 25.0267 162.496 24.4613 162.902 23.8C163.328 23.1173 163.68 22.4667 163.958 21.848C163.83 21.3573 163.766 20.7707 163.766 20.088C163.766 19.3627 163.851 18.6267 164.022 17.88C164.192 17.1333 164.459 16.5147 164.822 16.024C165.184 15.512 165.654 15.256 166.23 15.256C166.635 15.256 166.838 15.4373 166.838 15.8C166.838 15.8853 166.731 16.248 166.518 16.888C166.326 17.528 166.07 18.2853 165.75 19.16C165.43 20.0347 165.088 20.8773 164.726 21.688C164.64 21.8587 164.566 22.0293 164.502 22.2C164.587 22.5627 164.747 22.8613 164.982 23.096C165.216 23.3093 165.504 23.416 165.845 23.416C166.272 23.416 166.667 23.224 167.03 22.84C167.414 22.4347 167.808 21.7627 168.214 20.824C168.47 20.824 168.598 20.92 168.598 21.112C168.256 21.9653 167.84 22.648 167.35 23.16C166.88 23.672 166.347 23.928 165.75 23.928C165.024 23.928 164.502 23.5547 164.182 22.808C163.819 23.5547 163.392 24.2693 162.902 24.952C162.411 25.6133 161.867 26.1573 161.27 26.584C160.694 27.0107 160.064 27.224 159.382 27.224ZM175.145 27.096C174.654 27.096 174.217 26.9573 173.833 26.68C173.47 26.4027 173.289 25.8373 173.289 24.984C173.289 24.6213 173.31 24.28 173.353 23.96C173.417 23.64 173.491 23.2987 173.577 22.936C173.385 23.256 173.118 23.6507 172.777 24.12C172.435 24.5893 172.051 25.048 171.625 25.496C171.219 25.944 170.793 26.3173 170.345 26.616C169.918 26.9147 169.513 27.064 169.129 27.064C168.574 27.064 168.126 26.8187 167.785 26.328C167.443 25.816 167.273 25.1547 167.273 24.344C167.273 23.4693 167.475 22.5307 167.881 21.528C168.286 20.5253 168.841 19.5653 169.545 18.648C170.249 17.7307 171.059 16.984 171.977 16.408C172.894 15.832 173.854 15.544 174.857 15.544C175.347 15.544 175.817 15.6293 176.265 15.8C176.713 15.9493 177.107 16.2053 177.449 16.568C177.598 16.7173 177.673 16.888 177.673 17.08C177.673 17.208 177.619 17.3147 177.513 17.4C177.406 17.4853 177.267 17.5067 177.097 17.464C176.862 16.7173 176.361 16.344 175.593 16.344C175.23 16.344 174.814 16.4613 174.345 16.696C173.769 16.9947 173.15 17.4747 172.489 18.136C171.849 18.776 171.241 19.512 170.665 20.344C170.11 21.1547 169.651 21.976 169.289 22.808C168.926 23.64 168.745 24.3973 168.745 25.08C168.745 25.784 169.011 26.136 169.545 26.136C170.014 26.136 170.494 25.912 170.985 25.464C171.497 25.016 171.977 24.4613 172.425 23.8C172.894 23.1173 173.321 22.4453 173.705 21.784C174.089 21.1227 174.387 20.5893 174.601 20.184C174.921 19.608 175.219 19.128 175.497 18.744C175.774 18.36 176.169 18.168 176.681 18.168C176.915 18.168 177.15 18.2 177.385 18.264C177.619 18.328 177.865 18.3387 178.121 18.296C177.481 18.936 176.915 19.6933 176.425 20.568C175.955 21.4427 175.593 22.3067 175.337 23.16C175.081 23.992 174.953 24.696 174.953 25.272C174.953 25.912 175.166 26.232 175.593 26.232C175.934 26.232 176.297 26.04 176.681 25.656C177.086 25.272 177.47 24.792 177.833 24.216C178.217 23.6187 178.569 23.0213 178.889 22.424C179.209 21.8053 179.465 21.272 179.657 20.824C179.763 20.824 179.849 20.8347 179.913 20.856C179.998 20.8773 180.041 20.9627 180.041 21.112C180.019 21.1973 179.977 21.2933 179.913 21.4C179.87 21.4853 179.795 21.6453 179.689 21.88C179.518 22.2213 179.283 22.68 178.985 23.256C178.686 23.832 178.334 24.4187 177.929 25.016C177.523 25.592 177.086 26.0827 176.617 26.488C176.147 26.8933 175.657 27.096 175.145 27.096Z" fill="#7CADCF"/>
<path d="M16.592 42.16C16.2613 42.16 16.0027 42.2533 15.816 42.44C15.6293 42.6213 15.4907 42.9147 15.4 43.32C15.3947 43.3307 15.376 43.336 15.344 43.336C15.3173 43.336 15.304 43.328 15.304 43.312C15.3253 43.1627 15.3493 42.92 15.376 42.584C15.4027 42.248 15.416 41.9947 15.416 41.824C15.416 41.7973 15.432 41.784 15.464 41.784C15.496 41.784 15.512 41.7973 15.512 41.824C15.512 41.9413 15.6587 42 15.952 42C16.4107 42.016 16.9467 42.024 17.56 42.024C17.8747 42.024 18.208 42.0187 18.56 42.008L19.104 42C19.3013 42 19.4453 41.9867 19.536 41.96C19.6267 41.9333 19.6853 41.88 19.712 41.8C19.7173 41.7787 19.7333 41.768 19.76 41.768C19.792 41.768 19.808 41.7787 19.808 41.8C19.792 41.9493 19.7733 42.1893 19.752 42.52C19.736 42.8507 19.728 43.1147 19.728 43.312C19.728 43.328 19.712 43.336 19.68 43.336C19.6533 43.336 19.64 43.328 19.64 43.312C19.6027 42.9013 19.496 42.608 19.32 42.432C19.144 42.2507 18.8827 42.16 18.536 42.16C18.3387 42.16 18.1973 42.1733 18.112 42.2C18.0267 42.2213 17.968 42.2667 17.936 42.336C17.904 42.4 17.888 42.5093 17.888 42.664V46.352C17.888 46.5173 17.904 46.6373 17.936 46.712C17.9733 46.7867 18.0427 46.8373 18.144 46.864C18.2453 46.8907 18.408 46.904 18.632 46.904C18.6427 46.904 18.648 46.92 18.648 46.952C18.648 46.984 18.6427 47 18.632 47C18.4453 47 18.2987 46.9973 18.192 46.992L17.56 46.984L16.944 46.992C16.8373 46.9973 16.688 47 16.496 47C16.48 47 16.472 46.984 16.472 46.952C16.472 46.92 16.48 46.904 16.496 46.904C16.7147 46.904 16.8747 46.8907 16.976 46.864C17.0827 46.8373 17.1547 46.7867 17.192 46.712C17.2293 46.632 17.248 46.512 17.248 46.352V42.648C17.248 42.4987 17.232 42.392 17.2 42.328C17.168 42.2587 17.1067 42.2133 17.016 42.192C16.9307 42.1707 16.7893 42.16 16.592 42.16ZM22.9124 47.096C22.4164 47.096 21.9737 46.9813 21.5844 46.752C21.2004 46.5173 20.9017 46.2027 20.6884 45.808C20.4804 45.408 20.3764 44.9733 20.3764 44.504C20.3764 43.9547 20.515 43.4853 20.7924 43.096C21.0697 42.7013 21.4244 42.4053 21.8564 42.208C22.2937 42.0107 22.739 41.912 23.1924 41.912C23.699 41.912 24.1444 42.032 24.5284 42.272C24.9124 42.5067 25.2057 42.8187 25.4084 43.208C25.6164 43.5973 25.7204 44.0107 25.7204 44.448C25.7204 44.9333 25.5924 45.3787 25.3364 45.784C25.0804 46.1893 24.7364 46.5093 24.3044 46.744C23.8777 46.9787 23.4137 47.096 22.9124 47.096ZM23.1924 46.92C23.5337 46.92 23.8404 46.832 24.1124 46.656C24.3844 46.48 24.5977 46.224 24.7524 45.888C24.9124 45.5467 24.9924 45.1413 24.9924 44.672C24.9924 44.176 24.9044 43.7333 24.7284 43.344C24.5577 42.9547 24.3097 42.6507 23.9844 42.432C23.6644 42.2133 23.291 42.104 22.8644 42.104C22.3097 42.104 21.8777 42.2933 21.5684 42.672C21.259 43.0453 21.1044 43.5627 21.1044 44.224C21.1044 44.7307 21.1924 45.1893 21.3684 45.6C21.5444 46.0107 21.7897 46.3333 22.1044 46.568C22.4244 46.8027 22.787 46.92 23.1924 46.92ZM29.5059 42.936C29.6339 42.728 29.6979 42.5547 29.6979 42.416C29.6979 42.2027 29.5512 42.096 29.2579 42.096C29.2472 42.096 29.2419 42.08 29.2419 42.048C29.2419 42.016 29.2472 42 29.2579 42L29.6499 42.008C29.8632 42.0187 30.0579 42.024 30.2339 42.024C30.3245 42.024 30.4339 42.0187 30.5619 42.008L30.8579 42C30.8685 42 30.8739 42.016 30.8739 42.048C30.8739 42.08 30.8685 42.096 30.8579 42.096C30.6712 42.096 30.4739 42.176 30.2659 42.336C30.0579 42.496 29.8712 42.7093 29.7059 42.976L28.5219 44.848L28.3699 44.72L29.5059 42.936ZM26.8019 42.776C26.6312 42.52 26.4792 42.344 26.3459 42.248C26.2179 42.1467 26.0792 42.096 25.9299 42.096C25.9139 42.096 25.9059 42.08 25.9059 42.048C25.9059 42.016 25.9139 42 25.9299 42C25.9885 42 26.0819 42.0053 26.2099 42.016L26.4739 42.024C26.6499 42.024 26.8925 42.0187 27.2019 42.008L27.6659 42C27.6765 42 27.6819 42.016 27.6819 42.048C27.6819 42.08 27.6765 42.096 27.6659 42.096C27.4099 42.096 27.2819 42.16 27.2819 42.288C27.2819 42.3467 27.3139 42.4213 27.3779 42.512L28.6739 44.456L28.1699 44.824L26.8019 42.776ZM28.7139 44.448V46.352C28.7139 46.5173 28.7272 46.6373 28.7539 46.712C28.7859 46.7867 28.8445 46.8373 28.9299 46.864C29.0205 46.8907 29.1619 46.904 29.3539 46.904C29.3699 46.904 29.3779 46.92 29.3779 46.952C29.3779 46.984 29.3699 47 29.3539 47C29.1885 47 29.0579 46.9973 28.9619 46.992L28.3859 46.984L27.8259 46.992C27.7299 46.9973 27.5939 47 27.4179 47C27.4072 47 27.4019 46.984 27.4019 46.952C27.4019 46.92 27.4072 46.904 27.4179 46.904C27.6099 46.904 27.7512 46.8907 27.8419 46.864C27.9325 46.8373 27.9939 46.7867 28.0259 46.712C28.0579 46.632 28.0739 46.512 28.0739 46.352V44.52L28.7139 44.448ZM34.2873 42.16C33.9566 42.16 33.698 42.2533 33.5113 42.44C33.3246 42.6213 33.186 42.9147 33.0953 43.32C33.09 43.3307 33.0713 43.336 33.0393 43.336C33.0126 43.336 32.9993 43.328 32.9993 43.312C33.0206 43.1627 33.0446 42.92 33.0713 42.584C33.098 42.248 33.1113 41.9947 33.1113 41.824C33.1113 41.7973 33.1273 41.784 33.1593 41.784C33.1913 41.784 33.2073 41.7973 33.2073 41.824C33.2073 41.9413 33.354 42 33.6473 42C34.106 42.016 34.642 42.024 35.2553 42.024C35.57 42.024 35.9033 42.0187 36.2553 42.008L36.7993 42C36.9966 42 37.1406 41.9867 37.2313 41.96C37.322 41.9333 37.3806 41.88 37.4073 41.8C37.4126 41.7787 37.4286 41.768 37.4553 41.768C37.4873 41.768 37.5033 41.7787 37.5033 41.8C37.4873 41.9493 37.4686 42.1893 37.4473 42.52C37.4313 42.8507 37.4233 43.1147 37.4233 43.312C37.4233 43.328 37.4073 43.336 37.3753 43.336C37.3486 43.336 37.3353 43.328 37.3353 43.312C37.298 42.9013 37.1913 42.608 37.0153 42.432C36.8393 42.2507 36.578 42.16 36.2313 42.16C36.034 42.16 35.8926 42.1733 35.8073 42.2C35.722 42.2213 35.6633 42.2667 35.6313 42.336C35.5993 42.4 35.5833 42.5093 35.5833 42.664V46.352C35.5833 46.5173 35.5993 46.6373 35.6313 46.712C35.6686 46.7867 35.738 46.8373 35.8393 46.864C35.9406 46.8907 36.1033 46.904 36.3273 46.904C36.338 46.904 36.3433 46.92 36.3433 46.952C36.3433 46.984 36.338 47 36.3273 47C36.1406 47 35.994 46.9973 35.8873 46.992L35.2553 46.984L34.6393 46.992C34.5326 46.9973 34.3833 47 34.1913 47C34.1753 47 34.1673 46.984 34.1673 46.952C34.1673 46.92 34.1753 46.904 34.1913 46.904C34.41 46.904 34.57 46.8907 34.6713 46.864C34.778 46.8373 34.85 46.7867 34.8873 46.712C34.9246 46.632 34.9433 46.512 34.9433 46.352V42.648C34.9433 42.4987 34.9273 42.392 34.8953 42.328C34.8633 42.2587 34.802 42.2133 34.7113 42.192C34.626 42.1707 34.4846 42.16 34.2873 42.16ZM40.2851 47.096C39.5811 47.096 39.0584 46.8907 38.7171 46.48C38.3757 46.064 38.2051 45.5333 38.2051 44.888C38.2051 44.8347 38.2104 44.8 38.2211 44.784C38.2371 44.768 38.2611 44.76 38.2931 44.76H38.9011C38.9011 45.5227 39.0477 46.0773 39.3411 46.424C39.6344 46.7707 40.0264 46.944 40.5171 46.944C41.0184 46.944 41.3917 46.7467 41.6371 46.352C41.8877 45.9573 42.0131 45.4027 42.0131 44.688C42.0131 44.1867 41.9437 43.736 41.8051 43.336C41.6717 42.936 41.4691 42.6213 41.1971 42.392C40.9251 42.1573 40.5944 42.04 40.2051 42.04C39.8477 42.04 39.5091 42.1467 39.1891 42.36C38.8744 42.568 38.6557 42.8533 38.5331 43.216C38.5277 43.2373 38.5091 43.2453 38.4771 43.24C38.4504 43.2293 38.4397 43.216 38.4451 43.2L38.7891 41.872C38.7944 41.8507 38.8104 41.8453 38.8371 41.856C38.8637 41.8613 38.8771 41.8693 38.8771 41.88C38.8717 41.9013 38.8691 41.9307 38.8691 41.968C38.8691 42.0693 38.9144 42.12 39.0051 42.12C39.0211 42.12 39.0504 42.1147 39.0931 42.104C39.5091 41.976 39.9064 41.912 40.2851 41.912C41.1277 41.912 41.7437 42.144 42.1331 42.608C42.5224 43.0667 42.7171 43.6587 42.7171 44.384C42.7171 44.9493 42.6077 45.4373 42.3891 45.848C42.1757 46.2533 41.8851 46.5627 41.5171 46.776C41.1491 46.9893 40.7384 47.096 40.2851 47.096ZM42.2131 44.896L38.8131 44.936V44.76L42.2051 44.744L42.2131 44.896ZM44.3414 42.896C44.3414 43.0987 44.392 43.2773 44.4934 43.432C44.5947 43.5813 44.7174 43.712 44.8614 43.824C45.0054 43.9307 45.2054 44.0613 45.4614 44.216C45.728 44.3813 45.9387 44.5253 46.0934 44.648C46.2534 44.7653 46.3894 44.912 46.5014 45.088C46.6134 45.264 46.6694 45.472 46.6694 45.712C46.6694 45.9733 46.6 46.2107 46.4614 46.424C46.328 46.632 46.1334 46.7973 45.8774 46.92C45.6267 47.0373 45.3334 47.096 44.9974 47.096C44.784 47.096 44.5734 47.0693 44.3654 47.016C44.1574 46.968 43.976 46.896 43.8214 46.8C43.7947 46.784 43.776 46.7653 43.7654 46.744C43.7547 46.7227 43.7494 46.6907 43.7494 46.648L43.6694 45.504C43.664 45.4827 43.6747 45.4693 43.7014 45.464C43.7334 45.4587 43.752 45.4667 43.7574 45.488C43.8854 45.8933 44.064 46.2373 44.2934 46.52C44.5227 46.8027 44.8214 46.944 45.1894 46.944C45.44 46.944 45.6507 46.8773 45.8214 46.744C45.992 46.6053 46.0774 46.3813 46.0774 46.072C46.0774 45.8373 46.024 45.632 45.9174 45.456C45.8107 45.28 45.68 45.1333 45.5254 45.016C45.3707 44.8933 45.1654 44.7547 44.9094 44.6C44.6587 44.44 44.4587 44.304 44.3094 44.192C44.1654 44.0747 44.0427 43.9333 43.9414 43.768C43.84 43.5973 43.7894 43.4 43.7894 43.176C43.7894 42.904 43.8614 42.672 44.0054 42.48C44.1547 42.288 44.3467 42.1467 44.5814 42.056C44.8214 41.96 45.072 41.912 45.3334 41.912C45.6854 41.912 46.008 41.9733 46.3014 42.096C46.3814 42.1333 46.4214 42.1813 46.4214 42.24L46.4614 43.24C46.4614 43.2613 46.4454 43.2747 46.4134 43.28C46.3867 43.28 46.3707 43.2693 46.3654 43.248C46.3067 42.96 46.1814 42.688 45.9894 42.432C45.8027 42.176 45.5334 42.048 45.1814 42.048C44.9147 42.048 44.7067 42.128 44.5574 42.288C44.4134 42.448 44.3414 42.6507 44.3414 42.896ZM45.2614 47.016C45.208 47.1813 45.1814 47.312 45.1814 47.408C45.1814 47.488 45.2054 47.552 45.2534 47.6C45.3014 47.6533 45.3894 47.7173 45.5174 47.792C45.6507 47.8667 45.7547 47.952 45.8294 48.048C45.9094 48.144 45.9494 48.264 45.9494 48.408C45.9494 48.616 45.8747 48.8 45.7254 48.96C45.5814 49.12 45.3654 49.2 45.0774 49.2C44.912 49.2 44.7787 49.1707 44.6774 49.112C44.5814 49.0587 44.5334 48.9787 44.5334 48.872C44.5334 48.8027 44.56 48.7413 44.6134 48.688C44.6667 48.6347 44.728 48.608 44.7974 48.608C44.872 48.608 44.9254 48.624 44.9574 48.656C44.9947 48.6933 45.0294 48.7467 45.0614 48.816C45.0934 48.8853 45.128 48.9387 45.1654 48.976C45.208 49.0133 45.2694 49.032 45.3494 49.032C45.5094 49.032 45.5894 48.9413 45.5894 48.76C45.5894 48.6213 45.5387 48.496 45.4374 48.384C45.3414 48.2773 45.1654 48.1547 44.9094 48.016C44.8454 47.9787 44.8134 47.944 44.8134 47.912C44.8134 47.8907 44.8267 47.8453 44.8534 47.776C44.96 47.4933 45.0267 47.3173 45.0534 47.248L45.1414 47.008L45.2614 47.016ZM48.0296 42.648C48.0296 42.488 48.0136 42.3707 47.9816 42.296C47.9496 42.2213 47.8882 42.1707 47.7976 42.144C47.7122 42.112 47.5736 42.096 47.3816 42.096C47.3656 42.096 47.3576 42.08 47.3576 42.048C47.3576 42.016 47.3656 42 47.3816 42L47.7816 42.008C48.0162 42.0187 48.2029 42.024 48.3416 42.024C48.4909 42.024 48.6829 42.0187 48.9176 42.008L49.3096 42C49.3202 42 49.3256 42.016 49.3256 42.048C49.3256 42.08 49.3202 42.096 49.3096 42.096C49.1229 42.096 48.9842 42.112 48.8936 42.144C48.8029 42.176 48.7416 42.232 48.7096 42.312C48.6776 42.3867 48.6616 42.504 48.6616 42.664V46.352C48.6616 46.5173 48.6749 46.6373 48.7016 46.712C48.7336 46.7867 48.7922 46.8373 48.8776 46.864C48.9682 46.8907 49.1122 46.904 49.3096 46.904C49.3256 46.904 49.3336 46.92 49.3336 46.952C49.3336 46.984 49.3256 47 49.3096 47C49.1389 47 49.0056 46.9973 48.9096 46.992L48.3416 46.984L47.7816 46.992C47.6802 46.9973 47.5416 47 47.3656 47C47.3549 47 47.3496 46.984 47.3496 46.952C47.3496 46.92 47.3549 46.904 47.3656 46.904C47.5576 46.904 47.6989 46.8907 47.7896 46.864C47.8802 46.8373 47.9416 46.7867 47.9736 46.712C48.0109 46.632 48.0296 46.512 48.0296 46.352V42.648ZM48.8456 44.28L49.3256 43.864L50.5096 45.408C50.8829 45.9093 51.1682 46.264 51.3656 46.472C51.5629 46.6747 51.7149 46.7973 51.8216 46.84C51.9336 46.8827 52.0882 46.904 52.2856 46.904C52.3016 46.904 52.3096 46.92 52.3096 46.952C52.3096 46.984 52.3016 47 52.2856 47H51.3896L51.1416 47.008C51.0669 47.008 51.0082 46.9973 50.9656 46.976C50.9282 46.9547 50.8829 46.9147 50.8296 46.856C50.7816 46.7973 50.6989 46.688 50.5816 46.528C50.5336 46.4693 50.4696 46.3867 50.3896 46.28C50.3096 46.168 50.2002 46.0213 50.0616 45.84L48.8456 44.28ZM50.3016 42.704C50.4722 42.5227 50.5576 42.3867 50.5576 42.296C50.5576 42.1627 50.4002 42.096 50.0856 42.096C50.0696 42.096 50.0616 42.08 50.0616 42.048C50.0616 42.016 50.0696 42 50.0856 42L50.4376 42.008C50.6509 42.0187 50.8536 42.024 51.0456 42.024C51.2376 42.024 51.4349 42.0187 51.6376 42.008L51.9496 42C51.9656 42 51.9736 42.016 51.9736 42.048C51.9736 42.08 51.9656 42.096 51.9496 42.096C51.7256 42.096 51.4829 42.152 51.2216 42.264C50.9602 42.376 50.7202 42.5387 50.5016 42.752L48.4456 44.784L48.2456 44.776L50.3016 42.704ZM53.9843 46.352C53.9843 46.5173 53.9976 46.6373 54.0243 46.712C54.0563 46.7867 54.115 46.8373 54.2003 46.864C54.291 46.8907 54.435 46.904 54.6323 46.904C54.643 46.904 54.6483 46.92 54.6483 46.952C54.6483 46.984 54.643 47 54.6323 47C54.4616 47 54.3283 46.9973 54.2323 46.992L53.6563 46.984L53.0963 46.992C52.995 46.9973 52.8563 47 52.6803 47C52.6696 47 52.6643 46.984 52.6643 46.952C52.6643 46.92 52.6696 46.904 52.6803 46.904C52.8723 46.904 53.0136 46.8907 53.1043 46.864C53.195 46.8373 53.2563 46.7867 53.2883 46.712C53.3256 46.632 53.3443 46.512 53.3443 46.352V42.648C53.3443 42.488 53.3256 42.3707 53.2883 42.296C53.2563 42.2213 53.195 42.1707 53.1043 42.144C53.0136 42.112 52.8723 42.096 52.6803 42.096C52.6696 42.096 52.6643 42.08 52.6643 42.048C52.6643 42.016 52.6696 42 52.6803 42L53.0963 42.008C53.331 42.0187 53.5176 42.024 53.6563 42.024C53.811 42.024 54.0056 42.0187 54.2403 42.008L54.6323 42C54.643 42 54.6483 42.016 54.6483 42.048C54.6483 42.08 54.643 42.096 54.6323 42.096C54.4403 42.096 54.299 42.112 54.2083 42.144C54.123 42.176 54.0643 42.232 54.0323 42.312C54.0003 42.3867 53.9843 42.504 53.9843 42.664V46.352ZM53.6643 41.296C53.5416 41.296 53.4456 41.2613 53.3763 41.192C53.307 41.1227 53.2723 41.0267 53.2723 40.904C53.2723 40.792 53.307 40.704 53.3763 40.64C53.4456 40.5707 53.5416 40.536 53.6643 40.536C53.7816 40.536 53.8723 40.5707 53.9363 40.64C54.0056 40.704 54.0403 40.792 54.0403 40.904C54.0403 41.0267 54.0056 41.1227 53.9363 41.192C53.8723 41.2613 53.7816 41.296 53.6643 41.296ZM56.552 46.32C56.552 46.4693 56.5653 46.5787 56.592 46.648C56.624 46.712 56.68 46.7573 56.76 46.784C56.84 46.8053 56.9653 46.816 57.136 46.816H57.816C58.152 46.816 58.4293 46.7173 58.648 46.52C58.872 46.3173 59.0213 46.0453 59.096 45.704C59.096 45.688 59.1093 45.6827 59.136 45.688C59.168 45.688 59.184 45.696 59.184 45.712C59.136 46.1813 59.112 46.5707 59.112 46.88C59.112 46.9227 59.1013 46.9547 59.08 46.976C59.064 46.992 59.0347 47 58.992 47H55.264C55.2533 47 55.248 46.984 55.248 46.952C55.248 46.92 55.2533 46.904 55.264 46.904C55.456 46.904 55.5973 46.8907 55.688 46.864C55.7787 46.8373 55.84 46.7867 55.872 46.712C55.904 46.632 55.92 46.512 55.92 46.352V42.648C55.92 42.488 55.904 42.3707 55.872 42.296C55.84 42.2213 55.7787 42.1707 55.688 42.144C55.5973 42.112 55.456 42.096 55.264 42.096C55.2533 42.096 55.248 42.08 55.248 42.048C55.248 42.016 55.2533 42 55.264 42L55.664 42.008C55.8987 42.0187 56.088 42.024 56.232 42.024C56.376 42.024 56.5653 42.0187 56.8 42.008L57.2 42C57.2107 42 57.216 42.016 57.216 42.048C57.216 42.08 57.2107 42.096 57.2 42.096C57.008 42.096 56.8667 42.112 56.776 42.144C56.6907 42.1707 56.632 42.224 56.6 42.304C56.568 42.3787 56.552 42.496 56.552 42.656V46.32ZM60.8889 44.736H63.0649L63.1209 44.912H60.7929L60.8889 44.736ZM64.9289 46.904C64.9555 46.904 64.9689 46.92 64.9689 46.952C64.9689 46.984 64.9555 47 64.9289 47C64.8275 47 64.6702 46.9947 64.4569 46.984C64.2329 46.9733 64.0729 46.968 63.9769 46.968C63.8542 46.968 63.7022 46.9733 63.5209 46.984C63.3395 46.9947 63.2035 47 63.1129 47C63.0915 47 63.0809 46.984 63.0809 46.952C63.0809 46.92 63.0915 46.904 63.1129 46.904C63.2942 46.904 63.4249 46.888 63.5049 46.856C63.5849 46.8187 63.6249 46.7547 63.6249 46.664C63.6249 46.5733 63.5849 46.448 63.5049 46.288L61.7849 42.712L62.0409 42.328L60.4809 45.944C60.4062 46.1253 60.3689 46.2747 60.3689 46.392C60.3689 46.5627 60.4355 46.6907 60.5689 46.776C60.7022 46.8613 60.8942 46.904 61.1449 46.904C61.1715 46.904 61.1849 46.92 61.1849 46.952C61.1849 46.984 61.1715 47 61.1449 47C61.0489 47 60.9102 46.9947 60.7289 46.984C60.5262 46.9733 60.3502 46.968 60.2009 46.968C60.0622 46.968 59.8969 46.9733 59.7049 46.984C59.5342 46.9947 59.3955 47 59.2889 47C59.2675 47 59.2569 46.984 59.2569 46.952C59.2569 46.92 59.2675 46.904 59.2889 46.904C59.4382 46.904 59.5635 46.8747 59.6649 46.816C59.7715 46.7573 59.8729 46.656 59.9689 46.512C60.0649 46.368 60.1742 46.1547 60.2969 45.872L62.0009 41.944C62.0062 41.928 62.0249 41.92 62.0569 41.92C62.0889 41.9147 62.1075 41.9227 62.1129 41.944L64.0329 45.904C64.2195 46.2933 64.3742 46.5573 64.4969 46.696C64.6249 46.8347 64.7689 46.904 64.9289 46.904ZM65.9748 42.16C65.6441 42.16 65.3855 42.2533 65.1988 42.44C65.0121 42.6213 64.8735 42.9147 64.7828 43.32C64.7775 43.3307 64.7588 43.336 64.7268 43.336C64.7001 43.336 64.6868 43.328 64.6868 43.312C64.7081 43.1627 64.7321 42.92 64.7588 42.584C64.7855 42.248 64.7988 41.9947 64.7988 41.824C64.7988 41.7973 64.8148 41.784 64.8468 41.784C64.8788 41.784 64.8948 41.7973 64.8948 41.824C64.8948 41.9413 65.0415 42 65.3348 42C65.7935 42.016 66.3295 42.024 66.9428 42.024C67.2575 42.024 67.5908 42.0187 67.9428 42.008L68.4868 42C68.6841 42 68.8281 41.9867 68.9188 41.96C69.0095 41.9333 69.0681 41.88 69.0948 41.8C69.1001 41.7787 69.1161 41.768 69.1428 41.768C69.1748 41.768 69.1908 41.7787 69.1908 41.8C69.1748 41.9493 69.1561 42.1893 69.1348 42.52C69.1188 42.8507 69.1108 43.1147 69.1108 43.312C69.1108 43.328 69.0948 43.336 69.0628 43.336C69.0361 43.336 69.0228 43.328 69.0228 43.312C68.9855 42.9013 68.8788 42.608 68.7028 42.432C68.5268 42.2507 68.2655 42.16 67.9188 42.16C67.7215 42.16 67.5801 42.1733 67.4948 42.2C67.4095 42.2213 67.3508 42.2667 67.3188 42.336C67.2868 42.4 67.2708 42.5093 67.2708 42.664V46.352C67.2708 46.5173 67.2868 46.6373 67.3188 46.712C67.3561 46.7867 67.4255 46.8373 67.5268 46.864C67.6281 46.8907 67.7908 46.904 68.0148 46.904C68.0255 46.904 68.0308 46.92 68.0308 46.952C68.0308 46.984 68.0255 47 68.0148 47C67.8281 47 67.6815 46.9973 67.5748 46.992L66.9428 46.984L66.3268 46.992C66.2201 46.9973 66.0708 47 65.8788 47C65.8628 47 65.8548 46.984 65.8548 46.952C65.8548 46.92 65.8628 46.904 65.8788 46.904C66.0975 46.904 66.2575 46.8907 66.3588 46.864C66.4655 46.8373 66.5375 46.7867 66.5748 46.712C66.6121 46.632 66.6308 46.512 66.6308 46.352V42.648C66.6308 42.4987 66.6148 42.392 66.5828 42.328C66.5508 42.2587 66.4895 42.2133 66.3988 42.192C66.3135 42.1707 66.1721 42.16 65.9748 42.16ZM72.6952 41.912C73.0045 41.912 73.2765 41.936 73.5112 41.984C73.7512 42.0267 73.9752 42.0987 74.1832 42.2C74.2205 42.216 74.2445 42.2347 74.2552 42.256C74.2659 42.272 74.2739 42.312 74.2792 42.376L74.3832 43.376C74.3832 43.392 74.3672 43.4027 74.3352 43.408C74.3085 43.4133 74.2925 43.4053 74.2872 43.384C74.0152 42.4933 73.4659 42.048 72.6392 42.048C72.2179 42.048 71.8445 42.1467 71.5192 42.344C71.1939 42.5413 70.9405 42.8213 70.7592 43.184C70.5832 43.5467 70.4952 43.9707 70.4952 44.456C70.4952 44.9307 70.5912 45.36 70.7832 45.744C70.9805 46.1227 71.2445 46.4213 71.5752 46.64C71.9112 46.8533 72.2792 46.96 72.6792 46.96C73.0952 46.96 73.4365 46.856 73.7032 46.648C73.9699 46.4347 74.1859 46.1067 74.3512 45.664C74.3565 45.6533 74.3699 45.648 74.3912 45.648C74.4019 45.648 74.4125 45.6533 74.4232 45.664C74.4392 45.6693 74.4472 45.6747 74.4472 45.68L74.3592 46.592C74.3539 46.656 74.3459 46.696 74.3352 46.712C74.3245 46.728 74.2979 46.7467 74.2552 46.768C73.9885 46.8907 73.7325 46.976 73.4872 47.024C73.2419 47.0773 72.9725 47.104 72.6792 47.104C72.1139 47.104 71.6099 46.9947 71.1672 46.776C70.7245 46.552 70.3779 46.2427 70.1272 45.848C69.8819 45.4533 69.7592 45 69.7592 44.488C69.7592 43.9867 69.8845 43.5413 70.1352 43.152C70.3912 42.7573 70.7432 42.4533 71.1912 42.24C71.6392 42.0213 72.1405 41.912 72.6952 41.912ZM72.6792 47.016C72.6259 47.176 72.5992 47.304 72.5992 47.4C72.5992 47.4853 72.6232 47.552 72.6712 47.6C72.7192 47.6533 72.8072 47.7173 72.9352 47.792C73.0685 47.8667 73.1752 47.952 73.2552 48.048C73.3352 48.144 73.3752 48.264 73.3752 48.408C73.3752 48.616 73.3005 48.8 73.1512 48.96C73.0072 49.12 72.7885 49.2 72.4952 49.2C72.3299 49.2 72.1992 49.1707 72.1032 49.112C72.0072 49.0587 71.9592 48.9787 71.9592 48.872C71.9592 48.8027 71.9859 48.7413 72.0392 48.688C72.0925 48.6347 72.1539 48.608 72.2232 48.608C72.2979 48.608 72.3512 48.624 72.3832 48.656C72.4205 48.6933 72.4552 48.7467 72.4872 48.816C72.5192 48.8853 72.5539 48.9387 72.5912 48.976C72.6285 49.0133 72.6872 49.032 72.7672 49.032C72.9325 49.032 73.0152 48.9413 73.0152 48.76C73.0152 48.6213 72.9645 48.496 72.8632 48.384C72.7672 48.2773 72.5912 48.1547 72.3352 48.016C72.2659 47.9787 72.2312 47.944 72.2312 47.912C72.2312 47.8907 72.2445 47.8453 72.2712 47.776C72.3512 47.584 72.4285 47.384 72.5032 47.176L72.5672 47.008L72.6792 47.016ZM76.4999 46.352C76.4999 46.5173 76.5133 46.6373 76.5399 46.712C76.5719 46.7867 76.6306 46.8373 76.7159 46.864C76.8066 46.8907 76.9506 46.904 77.1479 46.904C77.1586 46.904 77.1639 46.92 77.1639 46.952C77.1639 46.984 77.1586 47 77.1479 47C76.9773 47 76.8439 46.9973 76.7479 46.992L76.1719 46.984L75.6119 46.992C75.5106 46.9973 75.3719 47 75.1959 47C75.1853 47 75.1799 46.984 75.1799 46.952C75.1799 46.92 75.1853 46.904 75.1959 46.904C75.3879 46.904 75.5293 46.8907 75.6199 46.864C75.7106 46.8373 75.7719 46.7867 75.8039 46.712C75.8413 46.632 75.8599 46.512 75.8599 46.352V42.648C75.8599 42.488 75.8413 42.3707 75.8039 42.296C75.7719 42.2213 75.7106 42.1707 75.6199 42.144C75.5293 42.112 75.3879 42.096 75.1959 42.096C75.1853 42.096 75.1799 42.08 75.1799 42.048C75.1799 42.016 75.1853 42 75.1959 42L75.6119 42.008C75.8466 42.0187 76.0333 42.024 76.1719 42.024C76.3266 42.024 76.5213 42.0187 76.7559 42.008L77.1479 42C77.1586 42 77.1639 42.016 77.1639 42.048C77.1639 42.08 77.1586 42.096 77.1479 42.096C76.9559 42.096 76.8146 42.112 76.7239 42.144C76.6386 42.176 76.5799 42.232 76.5479 42.312C76.5159 42.3867 76.4999 42.504 76.4999 42.664V46.352ZM78.7476 42.896C78.7476 43.0987 78.7983 43.2773 78.8996 43.432C79.001 43.5813 79.1236 43.712 79.2676 43.824C79.4116 43.9307 79.6116 44.0613 79.8676 44.216C80.1343 44.3813 80.345 44.5253 80.4996 44.648C80.6596 44.7653 80.7956 44.912 80.9076 45.088C81.0196 45.264 81.0756 45.472 81.0756 45.712C81.0756 45.9733 81.0063 46.2107 80.8676 46.424C80.7343 46.632 80.5396 46.7973 80.2836 46.92C80.033 47.0373 79.7396 47.096 79.4036 47.096C79.1903 47.096 78.9796 47.0693 78.7716 47.016C78.5636 46.968 78.3823 46.896 78.2276 46.8C78.201 46.784 78.1823 46.7653 78.1716 46.744C78.161 46.7227 78.1556 46.6907 78.1556 46.648L78.0756 45.504C78.0703 45.4827 78.081 45.4693 78.1076 45.464C78.1396 45.4587 78.1583 45.4667 78.1636 45.488C78.2916 45.8933 78.4703 46.2373 78.6996 46.52C78.929 46.8027 79.2276 46.944 79.5956 46.944C79.8463 46.944 80.057 46.8773 80.2276 46.744C80.3983 46.6053 80.4836 46.3813 80.4836 46.072C80.4836 45.8373 80.4303 45.632 80.3236 45.456C80.217 45.28 80.0863 45.1333 79.9316 45.016C79.777 44.8933 79.5716 44.7547 79.3156 44.6C79.065 44.44 78.865 44.304 78.7156 44.192C78.5716 44.0747 78.449 43.9333 78.3476 43.768C78.2463 43.5973 78.1956 43.4 78.1956 43.176C78.1956 42.904 78.2676 42.672 78.4116 42.48C78.561 42.288 78.753 42.1467 78.9876 42.056C79.2276 41.96 79.4783 41.912 79.7396 41.912C80.0916 41.912 80.4143 41.9733 80.7076 42.096C80.7876 42.1333 80.8276 42.1813 80.8276 42.24L80.8676 43.24C80.8676 43.2613 80.8516 43.2747 80.8196 43.28C80.793 43.28 80.777 43.2693 80.7716 43.248C80.713 42.96 80.5876 42.688 80.3956 42.432C80.209 42.176 79.9396 42.048 79.5876 42.048C79.321 42.048 79.113 42.128 78.9636 42.288C78.8196 42.448 78.7476 42.6507 78.7476 42.896ZM83.1718 46.352C83.1718 46.5173 83.1851 46.6373 83.2118 46.712C83.2438 46.7867 83.3025 46.8373 83.3878 46.864C83.4785 46.8907 83.6225 46.904 83.8198 46.904C83.8305 46.904 83.8358 46.92 83.8358 46.952C83.8358 46.984 83.8305 47 83.8198 47C83.6491 47 83.5158 46.9973 83.4198 46.992L82.8438 46.984L82.2838 46.992C82.1825 46.9973 82.0438 47 81.8678 47C81.8571 47 81.8518 46.984 81.8518 46.952C81.8518 46.92 81.8571 46.904 81.8678 46.904C82.0598 46.904 82.2011 46.8907 82.2918 46.864C82.3825 46.8373 82.4438 46.7867 82.4758 46.712C82.5131 46.632 82.5318 46.512 82.5318 46.352V42.648C82.5318 42.488 82.5131 42.3707 82.4758 42.296C82.4438 42.2213 82.3825 42.1707 82.2918 42.144C82.2011 42.112 82.0598 42.096 81.8678 42.096C81.8571 42.096 81.8518 42.08 81.8518 42.048C81.8518 42.016 81.8571 42 81.8678 42L82.2838 42.008C82.5185 42.0187 82.7051 42.024 82.8438 42.024C82.9985 42.024 83.1931 42.0187 83.4278 42.008L83.8198 42C83.8305 42 83.8358 42.016 83.8358 42.048C83.8358 42.08 83.8305 42.096 83.8198 42.096C83.6278 42.096 83.4865 42.112 83.3958 42.144C83.3105 42.176 83.2518 42.232 83.2198 42.312C83.1878 42.3867 83.1718 42.504 83.1718 42.664V46.352ZM88.9825 42.768C88.9825 42.5333 88.9212 42.3493 88.7985 42.216C88.6758 42.0827 88.5158 42.016 88.3185 42.016C87.9398 42.016 87.7505 42.2507 87.7505 42.72C87.7505 43.2533 87.9638 43.808 88.3905 44.384C88.8225 44.96 89.3665 45.496 90.0225 45.992C90.3638 46.248 90.6812 46.4533 90.9745 46.608C91.2732 46.7627 91.5185 46.8613 91.7105 46.904C91.7318 46.9093 91.7398 46.928 91.7345 46.96C91.7345 46.9867 91.7265 47 91.7105 47H90.7025C90.4518 47 90.0145 46.744 89.3905 46.232C88.9852 45.912 88.6012 45.5547 88.2385 45.16C87.8812 44.7653 87.6118 44.3893 87.4305 44.032C87.2758 43.712 87.1985 43.424 87.1985 43.168C87.1985 42.9227 87.2545 42.6987 87.3665 42.496C87.4838 42.2933 87.6465 42.1333 87.8545 42.016C88.0678 41.8933 88.3132 41.832 88.5905 41.832C88.8678 41.832 89.0998 41.896 89.2865 42.024C89.4785 42.152 89.5745 42.352 89.5745 42.624C89.5745 42.832 89.5212 43.0213 89.4145 43.192C89.3078 43.3573 89.1745 43.504 89.0145 43.632C88.8598 43.7547 88.6518 43.9013 88.3905 44.072C88.1185 44.2533 87.9025 44.4107 87.7425 44.544C87.5878 44.672 87.4545 44.824 87.3425 45C87.2358 45.1707 87.1825 45.3653 87.1825 45.584C87.1825 45.8027 87.2412 46.0053 87.3585 46.192C87.4758 46.3787 87.6385 46.528 87.8465 46.64C88.0545 46.752 88.2945 46.808 88.5665 46.808C88.8812 46.808 89.1558 46.728 89.3905 46.568C89.6305 46.4027 89.8145 46.1813 89.9425 45.904C90.0758 45.6213 90.1425 45.312 90.1425 44.976C90.1425 44.7467 90.0998 44.5787 90.0145 44.472C89.9345 44.36 89.7798 44.304 89.5505 44.304C89.5345 44.304 89.5238 44.288 89.5185 44.256C89.5185 44.224 89.5292 44.208 89.5505 44.208L91.2945 44.2C91.3105 44.2 91.3185 44.216 91.3185 44.248C91.3185 44.28 91.3105 44.296 91.2945 44.296C91.1185 44.296 90.9878 44.3147 90.9025 44.352C90.8172 44.384 90.7558 44.432 90.7185 44.496C90.6812 44.56 90.6412 44.664 90.5985 44.808C90.4172 45.4373 90.1452 45.976 89.7825 46.424C89.4198 46.872 88.8678 47.096 88.1265 47.096C87.7852 47.096 87.4972 47.0427 87.2625 46.936C87.0332 46.824 86.8598 46.68 86.7425 46.504C86.6305 46.3227 86.5745 46.128 86.5745 45.92C86.5745 45.7067 86.6278 45.512 86.7345 45.336C86.8465 45.1547 86.9825 44.9947 87.1425 44.856C87.3025 44.712 87.5132 44.5467 87.7745 44.36C88.0412 44.1627 88.2545 43.9947 88.4145 43.856C88.5745 43.7173 88.7078 43.5573 88.8145 43.376C88.9265 43.1893 88.9825 42.9867 88.9825 42.768ZM96.8585 47.096C96.2665 47.096 95.7492 46.9813 95.3065 46.752C94.8692 46.5173 94.5332 46.2027 94.2985 45.808C94.0692 45.408 93.9545 44.968 93.9545 44.488C93.9545 43.976 94.0852 43.5253 94.3465 43.136C94.6132 42.7467 94.9758 42.4453 95.4345 42.232C95.8985 42.0187 96.4185 41.912 96.9945 41.912C97.2665 41.912 97.5278 41.9387 97.7785 41.992C98.0292 42.04 98.2372 42.1067 98.4025 42.192C98.4452 42.2133 98.4692 42.232 98.4745 42.248C98.4852 42.264 98.4932 42.3067 98.4985 42.376L98.6025 43.368C98.6025 43.384 98.5865 43.3947 98.5545 43.4C98.5278 43.4053 98.5118 43.3973 98.5065 43.376C98.3945 43.0027 98.1945 42.6907 97.9065 42.44C97.6238 42.184 97.2532 42.056 96.7945 42.056C96.3945 42.056 96.0345 42.1493 95.7145 42.336C95.3945 42.5227 95.1412 42.792 94.9545 43.144C94.7732 43.4907 94.6825 43.896 94.6825 44.36C94.6825 44.8293 94.7758 45.264 94.9625 45.664C95.1492 46.0587 95.4212 46.376 95.7785 46.616C96.1412 46.856 96.5705 46.976 97.0665 46.976C97.4292 46.976 97.6825 46.9067 97.8265 46.768C97.9705 46.624 98.0425 46.368 98.0425 46C98.0425 45.7227 98.0238 45.5307 97.9865 45.424C97.9545 45.312 97.8798 45.2373 97.7625 45.2C97.6505 45.1627 97.4505 45.144 97.1625 45.144C97.1305 45.144 97.1145 45.1227 97.1145 45.08C97.1145 45.064 97.1172 45.0507 97.1225 45.04C97.1332 45.024 97.1438 45.016 97.1545 45.016C97.5812 45.0427 97.9278 45.056 98.1945 45.056C98.4558 45.056 98.7252 45.048 99.0025 45.032C99.0132 45.032 99.0212 45.04 99.0265 45.056C99.0372 45.0667 99.0425 45.0773 99.0425 45.088C99.0425 45.1253 99.0292 45.144 99.0025 45.144C98.8798 45.1387 98.7945 45.1573 98.7465 45.2C98.6985 45.2373 98.6665 45.3173 98.6505 45.44C98.6398 45.5627 98.6345 45.776 98.6345 46.08C98.6345 46.32 98.6425 46.4907 98.6585 46.592C98.6798 46.6933 98.6905 46.7573 98.6905 46.784C98.6905 46.816 98.6852 46.8373 98.6745 46.848C98.6638 46.8587 98.6398 46.8693 98.6025 46.88C97.9305 47.024 97.3492 47.096 96.8585 47.096ZM101.809 47.096C101.105 47.096 100.582 46.8907 100.241 46.48C99.8992 46.064 99.7285 45.5333 99.7285 44.888C99.7285 44.8347 99.7338 44.8 99.7445 44.784C99.7605 44.768 99.7845 44.76 99.8165 44.76H100.425C100.425 45.5227 100.571 46.0773 100.865 46.424C101.158 46.7707 101.55 46.944 102.041 46.944C102.542 46.944 102.915 46.7467 103.161 46.352C103.411 45.9573 103.536 45.4027 103.536 44.688C103.536 44.1867 103.467 43.736 103.329 43.336C103.195 42.936 102.993 42.6213 102.721 42.392C102.449 42.1573 102.118 42.04 101.729 42.04C101.371 42.04 101.033 42.1467 100.713 42.36C100.398 42.568 100.179 42.8533 100.057 43.216C100.051 43.2373 100.033 43.2453 100.001 43.24C99.9738 43.2293 99.9632 43.216 99.9685 43.2L100.312 41.872C100.318 41.8507 100.334 41.8453 100.361 41.856C100.387 41.8613 100.401 41.8693 100.401 41.88C100.395 41.9013 100.393 41.9307 100.393 41.968C100.393 42.0693 100.438 42.12 100.529 42.12C100.545 42.12 100.574 42.1147 100.617 42.104C101.033 41.976 101.43 41.912 101.809 41.912C102.651 41.912 103.267 42.144 103.657 42.608C104.046 43.0667 104.241 43.6587 104.241 44.384C104.241 44.9493 104.131 45.4373 103.913 45.848C103.699 46.2533 103.409 46.5627 103.041 46.776C102.673 46.9893 102.262 47.096 101.809 47.096ZM103.737 44.896L100.337 44.936V44.76L103.729 44.744L103.737 44.896ZM106.185 46.32C106.185 46.4693 106.198 46.5787 106.225 46.648C106.257 46.712 106.313 46.7573 106.393 46.784C106.473 46.8053 106.598 46.816 106.769 46.816H107.449C107.785 46.816 108.062 46.7173 108.281 46.52C108.505 46.3173 108.654 46.0453 108.729 45.704C108.729 45.688 108.742 45.6827 108.769 45.688C108.801 45.688 108.817 45.696 108.817 45.712C108.769 46.1813 108.745 46.5707 108.745 46.88C108.745 46.9227 108.734 46.9547 108.713 46.976C108.697 46.992 108.667 47 108.625 47H104.897C104.886 47 104.881 46.984 104.881 46.952C104.881 46.92 104.886 46.904 104.897 46.904C105.089 46.904 105.23 46.8907 105.321 46.864C105.411 46.8373 105.473 46.7867 105.505 46.712C105.537 46.632 105.553 46.512 105.553 46.352V42.648C105.553 42.488 105.537 42.3707 105.505 42.296C105.473 42.2213 105.411 42.1707 105.321 42.144C105.23 42.112 105.089 42.096 104.897 42.096C104.886 42.096 104.881 42.08 104.881 42.048C104.881 42.016 104.886 42 104.897 42L105.297 42.008C105.531 42.0187 105.721 42.024 105.865 42.024C106.009 42.024 106.198 42.0187 106.433 42.008L106.833 42C106.843 42 106.849 42.016 106.849 42.048C106.849 42.08 106.843 42.096 106.833 42.096C106.641 42.096 106.499 42.112 106.409 42.144C106.323 42.1707 106.265 42.224 106.233 42.304C106.201 42.3787 106.185 42.496 106.185 42.656V46.32ZM110.594 46.352C110.594 46.5173 110.607 46.6373 110.634 46.712C110.666 46.7867 110.724 46.8373 110.81 46.864C110.9 46.8907 111.044 46.904 111.242 46.904C111.252 46.904 111.258 46.92 111.258 46.952C111.258 46.984 111.252 47 111.242 47C111.071 47 110.938 46.9973 110.842 46.992L110.266 46.984L109.706 46.992C109.604 46.9973 109.466 47 109.29 47C109.279 47 109.274 46.984 109.274 46.952C109.274 46.92 109.279 46.904 109.29 46.904C109.482 46.904 109.623 46.8907 109.714 46.864C109.804 46.8373 109.866 46.7867 109.898 46.712C109.935 46.632 109.954 46.512 109.954 46.352V42.648C109.954 42.488 109.935 42.3707 109.898 42.296C109.866 42.2213 109.804 42.1707 109.714 42.144C109.623 42.112 109.482 42.096 109.29 42.096C109.279 42.096 109.274 42.08 109.274 42.048C109.274 42.016 109.279 42 109.29 42L109.706 42.008C109.94 42.0187 110.127 42.024 110.266 42.024C110.42 42.024 110.615 42.0187 110.85 42.008L111.242 42C111.252 42 111.258 42.016 111.258 42.048C111.258 42.08 111.252 42.096 111.242 42.096C111.05 42.096 110.908 42.112 110.818 42.144C110.732 42.176 110.674 42.232 110.642 42.312C110.61 42.3867 110.594 42.504 110.594 42.664V46.352ZM110.274 41.296C110.151 41.296 110.055 41.2613 109.986 41.192C109.916 41.1227 109.882 41.0267 109.882 40.904C109.882 40.792 109.916 40.704 109.986 40.64C110.055 40.5707 110.151 40.536 110.274 40.536C110.391 40.536 110.482 40.5707 110.546 40.64C110.615 40.704 110.65 40.792 110.65 40.904C110.65 41.0267 110.615 41.1227 110.546 41.192C110.482 41.2613 110.391 41.296 110.274 41.296ZM112.585 42.184L112.793 42.2V46.088C112.793 46.3653 112.844 46.5707 112.945 46.704C113.052 46.8373 113.212 46.904 113.425 46.904C113.436 46.904 113.441 46.92 113.441 46.952C113.441 46.984 113.436 47 113.425 47C113.287 47 113.18 46.9973 113.105 46.992L112.697 46.984L112.265 46.992C112.185 46.9973 112.068 47 111.913 47C111.903 47 111.897 46.984 111.897 46.952C111.897 46.92 111.903 46.904 111.913 46.904C112.143 46.904 112.311 46.8373 112.417 46.704C112.529 46.5707 112.585 46.3653 112.585 46.088V42.184ZM116.633 47.104C116.633 47.1147 116.62 47.1227 116.593 47.128C116.572 47.1333 116.556 47.1307 116.545 47.12L112.777 42.656C112.601 42.448 112.444 42.304 112.305 42.224C112.167 42.1387 112.028 42.096 111.889 42.096C111.879 42.096 111.873 42.08 111.873 42.048C111.873 42.016 111.879 42 111.889 42L112.201 42.008C112.265 42.0133 112.356 42.016 112.473 42.016L112.881 42.008C112.935 42.0027 112.996 42 113.065 42C113.108 42 113.14 42.0107 113.161 42.032C113.183 42.0533 113.215 42.096 113.257 42.16L113.449 42.416L116.569 46.176L116.633 47.104ZM116.633 47.104L116.433 46.856V42.92C116.433 42.6427 116.383 42.4373 116.281 42.304C116.18 42.1653 116.023 42.096 115.809 42.096C115.799 42.096 115.793 42.08 115.793 42.048C115.793 42.016 115.799 42 115.809 42L116.129 42.008C116.289 42.0187 116.425 42.024 116.537 42.024C116.633 42.024 116.772 42.0187 116.953 42.008L117.289 42C117.3 42 117.305 42.016 117.305 42.048C117.305 42.08 117.3 42.096 117.289 42.096C116.852 42.096 116.633 42.3707 116.633 42.92V47.104ZM120.256 42.648C120.256 42.488 120.24 42.3707 120.208 42.296C120.176 42.2213 120.115 42.1707 120.024 42.144C119.939 42.112 119.8 42.096 119.608 42.096C119.592 42.096 119.584 42.08 119.584 42.048C119.584 42.016 119.592 42 119.608 42L120.008 42.008C120.243 42.0187 120.429 42.024 120.568 42.024C120.717 42.024 120.909 42.0187 121.144 42.008L121.536 42C121.547 42 121.552 42.016 121.552 42.048C121.552 42.08 121.547 42.096 121.536 42.096C121.349 42.096 121.211 42.112 121.12 42.144C121.029 42.176 120.968 42.232 120.936 42.312C120.904 42.3867 120.888 42.504 120.888 42.664V46.352C120.888 46.5173 120.901 46.6373 120.928 46.712C120.96 46.7867 121.019 46.8373 121.104 46.864C121.195 46.8907 121.339 46.904 121.536 46.904C121.552 46.904 121.56 46.92 121.56 46.952C121.56 46.984 121.552 47 121.536 47C121.365 47 121.232 46.9973 121.136 46.992L120.568 46.984L120.008 46.992C119.907 46.9973 119.768 47 119.592 47C119.581 47 119.576 46.984 119.576 46.952C119.576 46.92 119.581 46.904 119.592 46.904C119.784 46.904 119.925 46.8907 120.016 46.864C120.107 46.8373 120.168 46.7867 120.2 46.712C120.237 46.632 120.256 46.512 120.256 46.352V42.648ZM121.072 44.28L121.552 43.864L122.736 45.408C123.109 45.9093 123.395 46.264 123.592 46.472C123.789 46.6747 123.941 46.7973 124.048 46.84C124.16 46.8827 124.315 46.904 124.512 46.904C124.528 46.904 124.536 46.92 124.536 46.952C124.536 46.984 124.528 47 124.512 47H123.616L123.368 47.008C123.293 47.008 123.235 46.9973 123.192 46.976C123.155 46.9547 123.109 46.9147 123.056 46.856C123.008 46.7973 122.925 46.688 122.808 46.528C122.76 46.4693 122.696 46.3867 122.616 46.28C122.536 46.168 122.427 46.0213 122.288 45.84L121.072 44.28ZM122.528 42.704C122.699 42.5227 122.784 42.3867 122.784 42.296C122.784 42.1627 122.627 42.096 122.312 42.096C122.296 42.096 122.288 42.08 122.288 42.048C122.288 42.016 122.296 42 122.312 42L122.664 42.008C122.877 42.0187 123.08 42.024 123.272 42.024C123.464 42.024 123.661 42.0187 123.864 42.008L124.176 42C124.192 42 124.2 42.016 124.2 42.048C124.2 42.08 124.192 42.096 124.176 42.096C123.952 42.096 123.709 42.152 123.448 42.264C123.187 42.376 122.947 42.5387 122.728 42.752L120.672 44.784L120.472 44.776L122.528 42.704ZM127.194 47.096C126.698 47.096 126.255 46.9813 125.866 46.752C125.482 46.5173 125.183 46.2027 124.97 45.808C124.762 45.408 124.658 44.9733 124.658 44.504C124.658 43.9547 124.796 43.4853 125.074 43.096C125.351 42.7013 125.706 42.4053 126.138 42.208C126.575 42.0107 127.02 41.912 127.474 41.912C127.98 41.912 128.426 42.032 128.81 42.272C129.194 42.5067 129.487 42.8187 129.69 43.208C129.898 43.5973 130.002 44.0107 130.002 44.448C130.002 44.9333 129.874 45.3787 129.618 45.784C129.362 46.1893 129.018 46.5093 128.586 46.744C128.159 46.9787 127.695 47.096 127.194 47.096ZM127.474 46.92C127.815 46.92 128.122 46.832 128.394 46.656C128.666 46.48 128.879 46.224 129.034 45.888C129.194 45.5467 129.274 45.1413 129.274 44.672C129.274 44.176 129.186 43.7333 129.01 43.344C128.839 42.9547 128.591 42.6507 128.266 42.432C127.946 42.2133 127.572 42.104 127.146 42.104C126.591 42.104 126.159 42.2933 125.85 42.672C125.54 43.0453 125.386 43.5627 125.386 44.224C125.386 44.7307 125.474 45.1893 125.65 45.6C125.826 46.0107 126.071 46.3333 126.386 46.568C126.706 46.8027 127.068 46.92 127.474 46.92ZM126.658 41.304C126.54 41.304 126.45 41.272 126.386 41.208C126.322 41.144 126.29 41.0533 126.29 40.936C126.29 40.824 126.322 40.7387 126.386 40.68C126.45 40.616 126.54 40.584 126.658 40.584C126.77 40.584 126.858 40.616 126.922 40.68C126.986 40.7387 127.018 40.824 127.018 40.936C127.018 41.0533 126.986 41.144 126.922 41.208C126.858 41.272 126.77 41.304 126.658 41.304ZM128.058 41.304C127.94 41.304 127.85 41.272 127.786 41.208C127.722 41.144 127.69 41.0533 127.69 40.936C127.69 40.824 127.722 40.7387 127.786 40.68C127.85 40.616 127.94 40.584 128.058 40.584C128.17 40.584 128.258 40.616 128.322 40.68C128.386 40.7387 128.418 40.824 128.418 40.936C128.418 41.0533 128.386 41.144 128.322 41.208C128.258 41.272 128.17 41.304 128.058 41.304ZM131.423 42.184L131.623 42.2L131.543 46.088C131.537 46.3653 131.588 46.5707 131.695 46.704C131.801 46.8373 131.975 46.904 132.215 46.904C132.231 46.904 132.239 46.92 132.239 46.952C132.239 46.984 132.231 47 132.215 47C132.071 47 131.959 46.9973 131.879 46.992L131.439 46.984L130.999 46.992C130.924 46.9973 130.815 47 130.671 47C130.66 47 130.655 46.984 130.655 46.952C130.655 46.92 130.66 46.904 130.671 46.904C131.113 46.904 131.337 46.632 131.343 46.088L131.423 42.184ZM136.943 46.904C136.953 46.904 136.959 46.92 136.959 46.952C136.959 46.984 136.953 47 136.943 47C136.767 47 136.628 46.9973 136.527 46.992L135.967 46.984L135.431 46.992C135.34 46.9973 135.215 47 135.055 47C135.044 47 135.039 46.984 135.039 46.952C135.039 46.92 135.044 46.904 135.055 46.904C135.236 46.904 135.369 46.8907 135.455 46.864C135.54 46.832 135.596 46.7787 135.623 46.704C135.649 46.6293 135.657 46.512 135.647 46.352L135.487 42.584L135.799 42.136L133.727 46.944C133.716 46.9653 133.695 46.976 133.663 46.976C133.631 46.976 133.609 46.9653 133.599 46.944L131.511 42.664C131.415 42.4667 131.303 42.3227 131.175 42.232C131.047 42.1413 130.897 42.096 130.727 42.096C130.716 42.096 130.711 42.08 130.711 42.048C130.711 42.016 130.716 42 130.727 42L131.047 42.008C131.111 42.0133 131.193 42.016 131.295 42.016C131.412 42.016 131.508 42.0133 131.583 42.008C131.657 42.0027 131.716 42 131.759 42C131.828 42 131.884 42.024 131.927 42.072C131.969 42.12 132.036 42.2347 132.127 42.416L133.943 46.104L133.647 46.616L135.575 42.2C135.628 42.0667 135.708 42 135.815 42C135.847 42 135.889 42.0027 135.943 42.008C135.996 42.0133 136.065 42.016 136.151 42.016L136.559 42.008C136.623 42.0027 136.716 42 136.839 42C136.849 42 136.855 42.016 136.855 42.048C136.855 42.08 136.849 42.096 136.839 42.096C136.572 42.096 136.383 42.1387 136.271 42.224C136.159 42.3093 136.105 42.4587 136.111 42.672L136.279 46.352C136.289 46.5173 136.311 46.6373 136.343 46.712C136.375 46.7867 136.433 46.8373 136.519 46.864C136.609 46.8907 136.751 46.904 136.943 46.904ZM139.621 47.096C138.917 47.096 138.394 46.8907 138.053 46.48C137.712 46.064 137.541 45.5333 137.541 44.888C137.541 44.8347 137.546 44.8 137.557 44.784C137.573 44.768 137.597 44.76 137.629 44.76H138.237C138.237 45.5227 138.384 46.0773 138.677 46.424C138.97 46.7707 139.362 46.944 139.853 46.944C140.354 46.944 140.728 46.7467 140.973 46.352C141.224 45.9573 141.349 45.4027 141.349 44.688C141.349 44.1867 141.28 43.736 141.141 43.336C141.008 42.936 140.805 42.6213 140.533 42.392C140.261 42.1573 139.93 42.04 139.541 42.04C139.184 42.04 138.845 42.1467 138.525 42.36C138.21 42.568 137.992 42.8533 137.869 43.216C137.864 43.2373 137.845 43.2453 137.813 43.24C137.786 43.2293 137.776 43.216 137.781 43.2L138.125 41.872C138.13 41.8507 138.146 41.8453 138.173 41.856C138.2 41.8613 138.213 41.8693 138.213 41.88C138.208 41.9013 138.205 41.9307 138.205 41.968C138.205 42.0693 138.25 42.12 138.341 42.12C138.357 42.12 138.386 42.1147 138.429 42.104C138.845 41.976 139.242 41.912 139.621 41.912C140.464 41.912 141.08 42.144 141.469 42.608C141.858 43.0667 142.053 43.6587 142.053 44.384C142.053 44.9493 141.944 45.4373 141.725 45.848C141.512 46.2533 141.221 46.5627 140.853 46.776C140.485 46.9893 140.074 47.096 139.621 47.096ZM141.549 44.896L138.149 44.936V44.76L141.541 44.744L141.549 44.896ZM143.373 42.648C143.373 42.488 143.357 42.3707 143.325 42.296C143.293 42.2213 143.232 42.1707 143.141 42.144C143.056 42.112 142.917 42.096 142.725 42.096C142.709 42.096 142.701 42.08 142.701 42.048C142.701 42.016 142.709 42 142.725 42L143.125 42.008C143.36 42.0187 143.547 42.024 143.685 42.024C143.835 42.024 144.027 42.0187 144.261 42.008L144.653 42C144.664 42 144.669 42.016 144.669 42.048C144.669 42.08 144.664 42.096 144.653 42.096C144.467 42.096 144.328 42.112 144.237 42.144C144.147 42.176 144.085 42.232 144.053 42.312C144.021 42.3867 144.005 42.504 144.005 42.664V46.352C144.005 46.5173 144.019 46.6373 144.045 46.712C144.077 46.7867 144.136 46.8373 144.221 46.864C144.312 46.8907 144.456 46.904 144.653 46.904C144.669 46.904 144.677 46.92 144.677 46.952C144.677 46.984 144.669 47 144.653 47C144.483 47 144.349 46.9973 144.253 46.992L143.685 46.984L143.125 46.992C143.024 46.9973 142.885 47 142.709 47C142.699 47 142.693 46.984 142.693 46.952C142.693 46.92 142.699 46.904 142.709 46.904C142.901 46.904 143.043 46.8907 143.133 46.864C143.224 46.8373 143.285 46.7867 143.317 46.712C143.355 46.632 143.373 46.512 143.373 46.352V42.648ZM144.189 44.28L144.669 43.864L145.853 45.408C146.227 45.9093 146.512 46.264 146.709 46.472C146.907 46.6747 147.059 46.7973 147.165 46.84C147.277 46.8827 147.432 46.904 147.629 46.904C147.645 46.904 147.653 46.92 147.653 46.952C147.653 46.984 147.645 47 147.629 47H146.733L146.485 47.008C146.411 47.008 146.352 46.9973 146.309 46.976C146.272 46.9547 146.227 46.9147 146.173 46.856C146.125 46.7973 146.043 46.688 145.925 46.528C145.877 46.4693 145.813 46.3867 145.733 46.28C145.653 46.168 145.544 46.0213 145.405 45.84L144.189 44.28ZM145.645 42.704C145.816 42.5227 145.901 42.3867 145.901 42.296C145.901 42.1627 145.744 42.096 145.429 42.096C145.413 42.096 145.405 42.08 145.405 42.048C145.405 42.016 145.413 42 145.429 42L145.781 42.008C145.995 42.0187 146.197 42.024 146.389 42.024C146.581 42.024 146.779 42.0187 146.981 42.008L147.293 42C147.309 42 147.317 42.016 147.317 42.048C147.317 42.08 147.309 42.096 147.293 42.096C147.069 42.096 146.827 42.152 146.565 42.264C146.304 42.376 146.064 42.5387 145.845 42.752L143.789 44.784L143.589 44.776L145.645 42.704ZM150.711 41.912C151.02 41.912 151.292 41.936 151.527 41.984C151.767 42.0267 151.991 42.0987 152.199 42.2C152.236 42.216 152.26 42.2347 152.271 42.256C152.281 42.272 152.289 42.312 152.295 42.376L152.399 43.376C152.399 43.392 152.383 43.4027 152.351 43.408C152.324 43.4133 152.308 43.4053 152.303 43.384C152.031 42.4933 151.481 42.048 150.655 42.048C150.233 42.048 149.86 42.1467 149.535 42.344C149.209 42.5413 148.956 42.8213 148.775 43.184C148.599 43.5467 148.511 43.9707 148.511 44.456C148.511 44.9307 148.607 45.36 148.799 45.744C148.996 46.1227 149.26 46.4213 149.591 46.64C149.927 46.8533 150.295 46.96 150.695 46.96C151.111 46.96 151.452 46.856 151.719 46.648C151.985 46.4347 152.201 46.1067 152.367 45.664C152.372 45.6533 152.385 45.648 152.407 45.648C152.417 45.648 152.428 45.6533 152.439 45.664C152.455 45.6693 152.463 45.6747 152.463 45.68L152.375 46.592C152.369 46.656 152.361 46.696 152.351 46.712C152.34 46.728 152.313 46.7467 152.271 46.768C152.004 46.8907 151.748 46.976 151.503 47.024C151.257 47.0773 150.988 47.104 150.695 47.104C150.129 47.104 149.625 46.9947 149.183 46.776C148.74 46.552 148.393 46.2427 148.143 45.848C147.897 45.4533 147.775 45 147.775 44.488C147.775 43.9867 147.9 43.5413 148.151 43.152C148.407 42.7573 148.759 42.4533 149.207 42.24C149.655 42.0213 150.156 41.912 150.711 41.912ZM150.695 47.016C150.641 47.176 150.615 47.304 150.615 47.4C150.615 47.4853 150.639 47.552 150.687 47.6C150.735 47.6533 150.823 47.7173 150.951 47.792C151.084 47.8667 151.191 47.952 151.271 48.048C151.351 48.144 151.391 48.264 151.391 48.408C151.391 48.616 151.316 48.8 151.167 48.96C151.023 49.12 150.804 49.2 150.511 49.2C150.345 49.2 150.215 49.1707 150.119 49.112C150.023 49.0587 149.975 48.9787 149.975 48.872C149.975 48.8027 150.001 48.7413 150.055 48.688C150.108 48.6347 150.169 48.608 150.239 48.608C150.313 48.608 150.367 48.624 150.399 48.656C150.436 48.6933 150.471 48.7467 150.503 48.816C150.535 48.8853 150.569 48.9387 150.607 48.976C150.644 49.0133 150.703 49.032 150.783 49.032C150.948 49.032 151.031 48.9413 151.031 48.76C151.031 48.6213 150.98 48.496 150.879 48.384C150.783 48.2773 150.607 48.1547 150.351 48.016C150.281 47.9787 150.247 47.944 150.247 47.912C150.247 47.8907 150.26 47.8453 150.287 47.776C150.367 47.584 150.444 47.384 150.519 47.176L150.583 47.008L150.695 47.016ZM154.516 46.352C154.516 46.5173 154.529 46.6373 154.556 46.712C154.588 46.7867 154.646 46.8373 154.732 46.864C154.822 46.8907 154.966 46.904 155.164 46.904C155.174 46.904 155.18 46.92 155.18 46.952C155.18 46.984 155.174 47 155.164 47C154.993 47 154.86 46.9973 154.764 46.992L154.188 46.984L153.628 46.992C153.526 46.9973 153.388 47 153.212 47C153.201 47 153.196 46.984 153.196 46.952C153.196 46.92 153.201 46.904 153.212 46.904C153.404 46.904 153.545 46.8907 153.636 46.864C153.726 46.8373 153.788 46.7867 153.82 46.712C153.857 46.632 153.876 46.512 153.876 46.352V42.648C153.876 42.488 153.857 42.3707 153.82 42.296C153.788 42.2213 153.726 42.1707 153.636 42.144C153.545 42.112 153.404 42.096 153.212 42.096C153.201 42.096 153.196 42.08 153.196 42.048C153.196 42.016 153.201 42 153.212 42L153.628 42.008C153.862 42.0187 154.049 42.024 154.188 42.024C154.342 42.024 154.537 42.0187 154.772 42.008L155.164 42C155.174 42 155.18 42.016 155.18 42.048C155.18 42.08 155.174 42.096 155.164 42.096C154.972 42.096 154.83 42.112 154.74 42.144C154.654 42.176 154.596 42.232 154.564 42.312C154.532 42.3867 154.516 42.504 154.516 42.664V46.352ZM154.196 41.296C154.073 41.296 153.977 41.2613 153.908 41.192C153.838 41.1227 153.804 41.0267 153.804 40.904C153.804 40.792 153.838 40.704 153.908 40.64C153.977 40.5707 154.073 40.536 154.196 40.536C154.313 40.536 154.404 40.5707 154.468 40.64C154.537 40.704 154.572 40.792 154.572 40.904C154.572 41.0267 154.537 41.1227 154.468 41.192C154.404 41.2613 154.313 41.296 154.196 41.296ZM156.763 42.896C156.763 43.0987 156.814 43.2773 156.915 43.432C157.017 43.5813 157.139 43.712 157.283 43.824C157.427 43.9307 157.627 44.0613 157.883 44.216C158.15 44.3813 158.361 44.5253 158.515 44.648C158.675 44.7653 158.811 44.912 158.923 45.088C159.035 45.264 159.091 45.472 159.091 45.712C159.091 45.9733 159.022 46.2107 158.883 46.424C158.75 46.632 158.555 46.7973 158.299 46.92C158.049 47.0373 157.755 47.096 157.419 47.096C157.206 47.096 156.995 47.0693 156.787 47.016C156.579 46.968 156.398 46.896 156.243 46.8C156.217 46.784 156.198 46.7653 156.187 46.744C156.177 46.7227 156.171 46.6907 156.171 46.648L156.091 45.504C156.086 45.4827 156.097 45.4693 156.123 45.464C156.155 45.4587 156.174 45.4667 156.179 45.488C156.307 45.8933 156.486 46.2373 156.715 46.52C156.945 46.8027 157.243 46.944 157.611 46.944C157.862 46.944 158.073 46.8773 158.243 46.744C158.414 46.6053 158.499 46.3813 158.499 46.072C158.499 45.8373 158.446 45.632 158.339 45.456C158.233 45.28 158.102 45.1333 157.947 45.016C157.793 44.8933 157.587 44.7547 157.331 44.6C157.081 44.44 156.881 44.304 156.731 44.192C156.587 44.0747 156.465 43.9333 156.363 43.768C156.262 43.5973 156.211 43.4 156.211 43.176C156.211 42.904 156.283 42.672 156.427 42.48C156.577 42.288 156.769 42.1467 157.003 42.056C157.243 41.96 157.494 41.912 157.755 41.912C158.107 41.912 158.43 41.9733 158.723 42.096C158.803 42.1333 158.843 42.1813 158.843 42.24L158.883 43.24C158.883 43.2613 158.867 43.2747 158.835 43.28C158.809 43.28 158.793 43.2693 158.787 43.248C158.729 42.96 158.603 42.688 158.411 42.432C158.225 42.176 157.955 42.048 157.603 42.048C157.337 42.048 157.129 42.128 156.979 42.288C156.835 42.448 156.763 42.6507 156.763 42.896ZM161.187 46.352C161.187 46.5173 161.201 46.6373 161.227 46.712C161.259 46.7867 161.318 46.8373 161.403 46.864C161.494 46.8907 161.638 46.904 161.835 46.904C161.846 46.904 161.851 46.92 161.851 46.952C161.851 46.984 161.846 47 161.835 47C161.665 47 161.531 46.9973 161.435 46.992L160.859 46.984L160.299 46.992C160.198 46.9973 160.059 47 159.883 47C159.873 47 159.867 46.984 159.867 46.952C159.867 46.92 159.873 46.904 159.883 46.904C160.075 46.904 160.217 46.8907 160.307 46.864C160.398 46.8373 160.459 46.7867 160.491 46.712C160.529 46.632 160.547 46.512 160.547 46.352V42.648C160.547 42.488 160.529 42.3707 160.491 42.296C160.459 42.2213 160.398 42.1707 160.307 42.144C160.217 42.112 160.075 42.096 159.883 42.096C159.873 42.096 159.867 42.08 159.867 42.048C159.867 42.016 159.873 42 159.883 42L160.299 42.008C160.534 42.0187 160.721 42.024 160.859 42.024C161.014 42.024 161.209 42.0187 161.443 42.008L161.835 42C161.846 42 161.851 42.016 161.851 42.048C161.851 42.08 161.846 42.096 161.835 42.096C161.643 42.096 161.502 42.112 161.411 42.144C161.326 42.176 161.267 42.232 161.235 42.312C161.203 42.3867 161.187 42.504 161.187 42.664V46.352ZM160.867 41.296C160.745 41.296 160.649 41.2613 160.579 41.192C160.51 41.1227 160.475 41.0267 160.475 40.904C160.475 40.792 160.51 40.704 160.579 40.64C160.649 40.5707 160.745 40.536 160.867 40.536C160.985 40.536 161.075 40.5707 161.139 40.64C161.209 40.704 161.243 40.792 161.243 40.904C161.243 41.0267 161.209 41.1227 161.139 41.192C161.075 41.2613 160.985 41.296 160.867 41.296Z" fill="#7CADCF"/>
</svg>
