<svg width="180" height="36" viewBox="0 0 180 36" fill="none" xmlns="http://www.w3.org/2000/svg">
<path d="M11.584 28.736C9.2373 28.736 7.1893 28.3733 5.43997 27.648C3.71197 26.9227 2.36797 25.9307 1.40797 24.672C0.469302 23.392 -3.12328e-05 21.9413 -3.12328e-05 20.32C-3.12328e-05 18.9973 0.234635 17.792 0.703969 16.704C1.1733 15.616 1.79197 14.7093 2.55997 13.984C3.3493 13.2587 4.2133 12.7787 5.15197 12.544C5.3013 12.5227 5.37597 12.576 5.37597 12.704C5.37597 12.8107 5.32264 12.896 5.21597 12.96C4.10664 13.6213 3.2533 14.5707 2.65597 15.808C2.07997 17.0453 1.79197 18.4213 1.79197 19.936C1.79197 21.5787 2.21864 22.9973 3.07197 24.192C3.9253 25.3653 5.08797 26.2613 6.55997 26.88C8.0533 27.52 9.72797 27.84 11.584 27.84C13.184 27.84 14.6986 27.552 16.128 26.976C17.5786 26.4213 18.912 25.6533 20.128 24.672C21.344 23.6907 22.432 22.5813 23.392 21.344C24.3733 20.0853 25.1946 18.7733 25.856 17.408C26.0053 17.088 26.1546 16.7787 26.304 16.48C26.4533 16.1813 26.6026 15.8827 26.752 15.584C26.24 15.5627 25.7706 15.5413 25.344 15.52C24.9386 15.4987 24.6613 15.488 24.512 15.488C23.936 15.488 23.3173 15.5307 22.656 15.616C22.016 15.68 21.408 15.8187 20.832 16.032C20.2773 16.2453 19.8186 16.576 19.456 17.024C19.3066 17.1733 19.2106 17.2907 19.168 17.376C19.1466 17.4613 19.104 17.504 19.04 17.504C18.9546 17.504 18.88 17.44 18.816 17.312C18.752 17.1627 18.7626 17.0027 18.848 16.832C19.3386 15.744 20.032 15.008 20.928 14.624C21.824 14.2187 22.8266 14.016 23.936 14.016C24.1706 14.016 24.608 14.0587 25.248 14.144C25.9093 14.208 26.6026 14.2827 27.328 14.368C28.2666 12.4693 29.12 10.752 29.888 9.216C30.6773 7.68 31.4133 6.4 32.096 5.376C30.56 4.864 28.928 4.416 27.2 4.032C25.472 3.62666 23.616 3.424 21.632 3.424C20.16 3.424 18.8266 3.62666 17.632 4.032C16.4373 4.43733 15.4133 4.98133 14.56 5.664C13.728 6.34666 13.088 7.104 12.64 7.936C12.192 8.768 11.968 9.6 11.968 10.432C11.968 11.3707 12.1493 12.1173 12.512 12.672C12.8746 13.2267 13.344 13.632 13.92 13.888C14.5173 14.1227 15.1253 14.24 15.744 14.24C16.6613 14.24 17.44 14.016 18.08 13.568C18.7413 13.12 19.264 12.6187 19.648 12.064C20.032 11.488 20.2666 11.0187 20.352 10.656C20.4373 10.3147 20.5653 10.144 20.736 10.144C20.992 10.144 21.0986 10.2933 21.056 10.592C20.928 11.5307 20.5973 12.3413 20.064 13.024C19.5306 13.7067 18.88 14.2293 18.112 14.592C17.344 14.9333 16.5333 15.104 15.68 15.104C14.8053 15.104 13.9626 14.8907 13.152 14.464C12.3413 14.0373 11.68 13.4187 11.168 12.608C10.656 11.7973 10.4 10.816 10.4 9.664C10.4 8.72533 10.6026 7.79733 11.008 6.88C11.4346 5.94133 12.064 5.088 12.896 4.32C13.7493 3.53066 14.8266 2.90133 16.128 2.432C17.4293 1.96266 18.9653 1.728 20.736 1.728C21.9946 1.728 23.2853 1.87733 24.608 2.176C25.9306 2.45333 27.264 2.816 28.608 3.264C29.9733 3.69066 31.3173 4.13866 32.64 4.608C33.088 4.032 33.5146 3.59466 33.92 3.296C34.3253 2.976 34.7306 2.816 35.136 2.816C35.3066 2.816 35.424 2.85866 35.488 2.944C35.552 3.008 35.584 3.072 35.584 3.136C35.584 3.22133 35.552 3.31733 35.488 3.424C35.424 3.53066 35.3066 3.584 35.136 3.584C34.432 3.584 33.7706 3.97866 33.152 4.768C34.688 5.28 36.16 5.73866 37.568 6.144C38.9973 6.528 40.32 6.72 41.536 6.72C42.4746 6.72 43.0933 6.624 43.392 6.432C43.6906 6.21866 43.84 5.93066 43.84 5.568C43.84 5.33333 43.9146 5.216 44.064 5.216C44.1706 5.216 44.2666 5.29066 44.352 5.44C44.4586 5.568 44.512 5.728 44.512 5.92C44.512 6.432 44.224 6.848 43.648 7.168C43.0933 7.488 42.3146 7.648 41.312 7.648C39.9893 7.648 38.6133 7.43466 37.184 7.008C35.7546 6.56 34.24 6.06933 32.64 5.536C32.064 6.496 31.4986 7.75466 30.944 9.312C30.3893 10.848 29.7386 12.5867 28.992 14.528C29.9093 14.6133 30.88 14.688 31.904 14.752C32.928 14.7947 33.76 14.816 34.4 14.816C34.6133 14.816 34.72 14.88 34.72 15.008C34.72 15.1787 34.4746 15.328 33.984 15.456C33.664 15.5413 33.12 15.6053 32.352 15.648C31.6053 15.6907 30.8266 15.712 30.016 15.712C29.8453 15.712 29.632 15.712 29.376 15.712C29.12 15.6907 28.8426 15.68 28.544 15.68C28.352 16.1707 28.1493 16.672 27.936 17.184C27.744 17.6747 27.5306 18.1867 27.296 18.72C26.4 20.832 25.3013 22.5493 24 23.872C22.72 25.1733 21.344 26.176 19.872 26.88C18.4213 27.6053 16.9706 28.096 15.52 28.352C14.0906 28.608 12.7786 28.736 11.584 28.736ZM34.7435 19.328C35.1061 18.496 35.5115 17.6853 35.9595 16.896C36.4288 16.1067 36.9941 15.456 37.6555 14.944C38.3168 14.432 39.1061 14.176 40.0235 14.176C41.1755 14.176 42.0181 14.5067 42.5515 15.168C43.0848 15.8293 43.3515 16.5867 43.3515 17.44C43.3515 18.3573 43.1808 19.3067 42.8395 20.288C42.4981 21.248 42.0181 22.1547 41.3995 23.008C40.8021 23.84 40.0875 24.5227 39.2555 25.056C38.4235 25.568 37.5168 25.824 36.5355 25.824C35.9168 25.824 35.4688 25.6747 35.1915 25.376C34.9141 25.056 34.7755 24.6613 34.7755 24.192C34.7755 23.7653 34.8715 23.3173 35.0635 22.848C35.2768 22.3787 35.5861 21.9413 35.9915 21.536C36.6741 20.832 37.4741 20.256 38.3915 19.808C39.3301 19.36 40.3221 19.136 41.3675 19.136C41.4955 18.624 41.5595 18.048 41.5595 17.408C41.5595 16.7893 41.4315 16.2347 41.1755 15.744C40.9195 15.232 40.3968 14.976 39.6075 14.976C38.9248 14.976 38.2955 15.2213 37.7195 15.712C37.1648 16.2027 36.6635 16.8107 36.2155 17.536C35.7888 18.24 35.4261 18.9333 35.1275 19.616C34.8715 19.616 34.7435 19.52 34.7435 19.328ZM41.1755 19.712C40.2155 19.712 39.3088 19.968 38.4555 20.48C37.6021 20.9707 36.9195 21.536 36.4075 22.176C36.1941 22.4533 36.0021 22.7733 35.8315 23.136C35.6821 23.4987 35.6075 23.84 35.6075 24.16C35.6075 24.416 35.6715 24.64 35.7995 24.832C35.9488 25.0027 36.1835 25.088 36.5035 25.088C37.0368 25.088 37.6021 24.832 38.1995 24.32C38.8181 23.808 39.3941 23.1467 39.9275 22.336C40.4821 21.504 40.8981 20.6293 41.1755 19.712ZM44.713 19.232C44.8836 18.8693 45.1076 18.2933 45.385 17.504C45.6623 16.6933 45.9503 15.7973 46.249 14.816C46.5476 13.8347 46.7716 12.9067 46.921 12.032C46.985 11.6907 47.1023 11.4453 47.273 11.296C47.4436 11.1253 47.625 11.04 47.817 11.04C48.0943 11.04 48.3503 11.1787 48.585 11.456C48.8196 11.712 48.937 12.0853 48.937 12.576C48.937 13.1733 48.7556 13.6853 48.393 14.112C48.0516 14.5387 47.625 14.944 47.113 15.328C47.3263 15.3493 47.5503 15.3707 47.785 15.392C48.0196 15.392 48.2756 15.392 48.553 15.392C49.5556 15.392 50.5476 15.328 51.529 15.2C51.5716 15.328 51.593 15.424 51.593 15.488C51.593 15.7653 51.5076 16.1173 51.337 16.544C51.1876 16.9707 51.0276 17.3547 50.857 17.696C50.7716 17.888 50.601 18.24 50.345 18.752C50.089 19.2427 49.8116 19.808 49.513 20.448C49.2143 21.0667 48.9583 21.6853 48.745 22.304C48.553 22.9013 48.457 23.4133 48.457 23.84C48.457 24.3947 48.6703 24.672 49.097 24.672C49.5023 24.672 50.0676 24.2027 50.793 23.264C51.5183 22.304 52.2436 20.992 52.969 19.328C53.225 19.328 53.353 19.424 53.353 19.616C53.1183 20.192 52.8196 20.8213 52.457 21.504C52.1156 22.1867 51.7316 22.8373 51.305 23.456C50.8783 24.0533 50.4196 24.5547 49.929 24.96C49.4383 25.344 48.9263 25.536 48.393 25.536C47.9876 25.536 47.5823 25.376 47.177 25.056C46.7716 24.7147 46.569 24.1707 46.569 23.424C46.569 22.7627 46.697 22.1227 46.953 21.504C47.209 20.864 47.497 20.2667 47.817 19.712C48.137 19.1573 48.425 18.6667 48.681 18.24C48.937 17.8133 49.065 17.472 49.065 17.216C49.065 16.832 48.8196 16.5547 48.329 16.384C47.8596 16.2133 47.241 16.1173 46.473 16.096C46.089 17.0773 45.801 17.8027 45.609 18.272C45.417 18.7413 45.2356 19.1893 45.065 19.616C44.7236 19.616 44.6063 19.488 44.713 19.232ZM53.8582 25.504C53.0689 25.504 52.5142 25.28 52.1942 24.832C51.8742 24.3627 51.7142 23.8293 51.7142 23.232C51.7142 22.912 51.7462 22.592 51.8102 22.272C51.8956 21.9307 51.9916 21.6213 52.0982 21.344L54.2422 15.872C54.3062 15.7013 54.3382 15.552 54.3382 15.424C54.3382 15.2107 54.2849 15.0293 54.1782 14.88C54.0716 14.7093 53.9969 14.592 53.9542 14.528L55.7142 14.464C56.0342 14.4427 56.2582 14.4853 56.3862 14.592C56.5356 14.6773 56.6102 14.784 56.6102 14.912C56.6102 15.04 56.5356 15.2747 56.3862 15.616C56.1729 16.128 55.8849 16.768 55.5222 17.536C55.1596 18.304 54.7969 19.0933 54.4342 19.904C54.0929 20.7147 53.7942 21.472 53.5382 22.176C53.3036 22.88 53.1862 23.424 53.1862 23.808C53.1862 24.0853 53.2502 24.32 53.3782 24.512C53.5276 24.704 53.7729 24.8 54.1142 24.8C54.5622 24.8 54.9996 24.6293 55.4262 24.288C55.8742 23.9253 56.2902 23.4667 56.6742 22.912C57.0582 22.3573 57.4102 21.76 57.7302 21.12C58.0716 20.48 58.3596 19.8827 58.5942 19.328C58.8502 19.328 58.9782 19.424 58.9782 19.616C58.7649 20.1493 58.4876 20.7573 58.1462 21.44C57.8049 22.1227 57.4102 22.7733 56.9622 23.392C56.5356 23.9893 56.0556 24.4907 55.5222 24.896C55.0102 25.3013 54.4556 25.504 53.8582 25.504ZM56.7062 12.48C56.4289 12.48 56.1836 12.3733 55.9702 12.16C55.7782 11.9467 55.6822 11.6907 55.6822 11.392C55.6822 11.0293 55.8316 10.7093 56.1302 10.432C56.4289 10.1333 56.7596 9.984 57.1222 9.984C57.4209 9.984 57.6769 10.08 57.8902 10.272C58.1036 10.464 58.2102 10.7093 58.2102 11.008C58.2102 11.392 58.0609 11.7333 57.7622 12.032C57.4636 12.3307 57.1116 12.48 56.7062 12.48ZM65.9152 25.504C65.1899 25.504 64.6566 25.2587 64.3152 24.768C63.9739 24.2773 63.8032 23.7013 63.8032 23.04C63.8032 22.848 63.8139 22.656 63.8352 22.464C63.8566 22.2507 63.8992 22.0373 63.9632 21.824C63.6646 22.2933 63.3126 22.816 62.9072 23.392C62.5232 23.9467 62.0752 24.4373 61.5632 24.864C61.0726 25.2693 60.5179 25.472 59.8992 25.472C59.6219 25.472 59.3019 25.408 58.9392 25.28C58.5979 25.152 58.2886 24.9067 58.0112 24.544C57.7552 24.1813 57.6272 23.648 57.6272 22.944C57.6272 22.0267 57.8299 21.056 58.2352 20.032C58.6406 19.008 59.1952 18.048 59.8992 17.152C60.6032 16.2347 61.4032 15.4987 62.2992 14.944C63.1952 14.368 64.1232 14.08 65.0832 14.08C65.8512 14.08 66.5766 14.2827 67.2592 14.688C67.5792 14.0907 67.9206 13.4293 68.2832 12.704C68.6459 11.9573 69.0086 11.2213 69.3712 10.496C69.7339 9.77066 70.0539 9.10933 70.3312 8.512C70.6086 7.89333 70.8219 7.424 70.9712 7.104C71.2912 6.35733 71.5899 5.888 71.8672 5.696C72.1659 5.48266 72.5179 5.376 72.9232 5.376C73.1579 5.376 73.4139 5.408 73.6912 5.472C73.9899 5.51466 74.2779 5.52533 74.5552 5.504C74.4486 5.61066 74.2032 5.96266 73.8192 6.56C73.4352 7.15733 72.9659 7.936 72.4112 8.896C71.8566 9.83466 71.2592 10.8693 70.6192 12C70.0006 13.1307 69.3819 14.2933 68.7632 15.488C68.1659 16.6613 67.6112 17.792 67.0992 18.88C66.5872 19.968 66.1819 20.928 65.8832 21.76C65.5846 22.592 65.4352 23.2213 65.4352 23.648C65.4352 23.9253 65.4992 24.1707 65.6272 24.384C65.7552 24.576 65.9686 24.672 66.2672 24.672C66.6726 24.672 67.0886 24.4693 67.5152 24.064C67.9419 23.6587 68.3472 23.1573 68.7312 22.56C69.1366 21.9413 69.4886 21.344 69.7872 20.768C70.1072 20.1707 70.3419 19.6907 70.4912 19.328C70.7472 19.328 70.8752 19.424 70.8752 19.616C70.6832 20.064 70.4272 20.6187 70.1072 21.28C69.7872 21.9413 69.4139 22.592 68.9872 23.232C68.5606 23.872 68.0806 24.416 67.5472 24.864C67.0352 25.2907 66.4912 25.504 65.9152 25.504ZM60.1232 24.544C60.4219 24.544 60.7952 24.384 61.2432 24.064C61.6912 23.7227 62.1712 23.1893 62.6832 22.464C63.2806 21.6107 63.9632 20.544 64.7312 19.264C65.4992 17.984 66.2566 16.6293 67.0032 15.2C66.8539 15.072 66.6939 14.976 66.5232 14.912C66.3526 14.848 66.1179 14.816 65.8192 14.816C65.3286 14.816 64.7846 15.0293 64.1872 15.456C63.6112 15.8613 63.0246 16.3947 62.4272 17.056C61.8512 17.7173 61.3179 18.432 60.8272 19.2C60.3579 19.968 59.9739 20.7147 59.6752 21.44C59.3979 22.144 59.2592 22.752 59.2592 23.264C59.2592 24.1173 59.5472 24.544 60.1232 24.544ZM70.4935 19.328C70.8561 18.496 71.2615 17.6853 71.7095 16.896C72.1788 16.1067 72.7441 15.456 73.4055 14.944C74.0668 14.432 74.8561 14.176 75.7735 14.176C76.9255 14.176 77.7681 14.5067 78.3015 15.168C78.8348 15.8293 79.1015 16.5867 79.1015 17.44C79.1015 18.3573 78.9308 19.3067 78.5895 20.288C78.2481 21.248 77.7681 22.1547 77.1495 23.008C76.5521 23.84 75.8375 24.5227 75.0055 25.056C74.1735 25.568 73.2668 25.824 72.2855 25.824C71.6668 25.824 71.2188 25.6747 70.9415 25.376C70.6641 25.056 70.5255 24.6613 70.5255 24.192C70.5255 23.7653 70.6215 23.3173 70.8135 22.848C71.0268 22.3787 71.3361 21.9413 71.7415 21.536C72.4241 20.832 73.2241 20.256 74.1415 19.808C75.0801 19.36 76.0721 19.136 77.1175 19.136C77.2455 18.624 77.3095 18.048 77.3095 17.408C77.3095 16.7893 77.1815 16.2347 76.9255 15.744C76.6695 15.232 76.1468 14.976 75.3575 14.976C74.6748 14.976 74.0455 15.2213 73.4695 15.712C72.9148 16.2027 72.4135 16.8107 71.9655 17.536C71.5388 18.24 71.1761 18.9333 70.8775 19.616C70.6215 19.616 70.4935 19.52 70.4935 19.328ZM76.9255 19.712C75.9655 19.712 75.0588 19.968 74.2055 20.48C73.3521 20.9707 72.6695 21.536 72.1575 22.176C71.9441 22.4533 71.7521 22.7733 71.5815 23.136C71.4321 23.4987 71.3575 23.84 71.3575 24.16C71.3575 24.416 71.4215 24.64 71.5495 24.832C71.6988 25.0027 71.9335 25.088 72.2535 25.088C72.7868 25.088 73.3521 24.832 73.9495 24.32C74.5681 23.808 75.1441 23.1467 75.6775 22.336C76.2321 21.504 76.6481 20.6293 76.9255 19.712ZM94.4437 27.392C92.2251 27.392 90.3904 27.0827 88.9397 26.464C87.5104 25.8453 86.4437 25.0347 85.7397 24.032C85.0571 23.0293 84.7157 21.9627 84.7157 20.832C84.7157 19.552 85.0464 18.3893 85.7077 17.344C86.3691 16.2987 87.2331 15.392 88.2997 14.624C89.3877 13.856 90.5824 13.248 91.8837 12.8C93.1851 12.352 94.4651 12.096 95.7237 12.032C94.6144 11.6267 93.7077 11.072 93.0037 10.368C92.3211 9.64266 91.9797 8.85333 91.9797 8C91.9797 7.12533 92.2464 6.29333 92.7797 5.504C93.3344 4.69333 94.0704 3.95733 94.9877 3.296C95.9051 2.61333 96.9397 2.02666 98.0917 1.536C99.2651 1.04533 100.481 0.671997 101.74 0.415997C102.998 0.138663 104.214 -3.8147e-06 105.388 -3.8147e-06C107.286 -3.8147e-06 108.801 0.319997 109.932 0.959997C111.062 1.6 111.628 2.42133 111.628 3.424C111.628 4.34133 111.126 5.248 110.124 6.144C109.142 7.04 107.777 7.68 106.028 8.064C105.686 8.128 105.462 8.16 105.356 8.16C105.121 8.16 105.004 8.064 105.004 7.872C105.004 7.808 105.036 7.76533 105.1 7.744C105.185 7.70133 105.356 7.63733 105.612 7.552C106.87 7.12533 107.873 6.528 108.62 5.76C109.366 4.97066 109.74 4.13866 109.74 3.264C109.74 2.51733 109.377 1.92 108.652 1.472C107.948 1.00266 106.881 0.767996 105.452 0.767996C104.172 0.767996 102.881 0.949329 101.58 1.312C100.278 1.67466 99.0837 2.18666 97.9957 2.848C96.9077 3.50933 96.0331 4.26666 95.3717 5.12C94.7104 5.97333 94.3797 6.90133 94.3797 7.904C94.3797 8.62933 94.5931 9.216 95.0197 9.664C95.4464 10.112 95.9904 10.4747 96.6517 10.752C97.3131 11.008 97.9957 11.2213 98.6997 11.392C99.4251 11.5413 100.086 11.712 100.684 11.904C100.897 11.968 101.036 12.0533 101.1 12.16C101.164 12.2667 101.196 12.3733 101.196 12.48C101.196 12.7573 101.036 12.992 100.716 13.184C100.417 13.376 99.9904 13.472 99.4357 13.472C99.0944 13.472 98.7104 13.472 98.2837 13.472C97.8784 13.4507 97.4411 13.44 96.9717 13.44C96.3104 13.44 95.6064 13.472 94.8597 13.536C94.1344 13.6 93.3344 13.7707 92.4597 14.048C91.3504 14.3893 90.3797 14.9227 89.5477 15.648C88.7371 16.3733 88.1077 17.1733 87.6597 18.048C87.2117 18.9227 86.9877 19.7867 86.9877 20.64C86.9877 21.7493 87.2437 22.752 87.7557 23.648C88.2677 24.544 89.0784 25.248 90.1877 25.76C91.2971 26.2933 92.7584 26.56 94.5717 26.56C96.2357 26.56 97.8464 26.3467 99.4037 25.92C100.961 25.4933 102.401 24.9493 103.724 24.288C105.046 23.6053 106.177 22.9013 107.116 22.176C107.884 21.5573 108.502 20.928 108.972 20.288C109.462 19.648 109.708 19.0933 109.708 18.624C109.708 18.0267 109.292 17.664 108.46 17.536C108.246 17.5147 108.14 17.4507 108.14 17.344C108.14 17.1733 108.289 17.088 108.588 17.088C109.206 17.088 109.75 17.3013 110.22 17.728C110.71 18.1333 110.956 18.6453 110.956 19.264C110.956 20.48 110.092 21.76 108.364 23.104C107.318 23.936 106.038 24.672 104.524 25.312C103.03 25.952 101.409 26.4533 99.6597 26.816C97.9317 27.2 96.1931 27.392 94.4437 27.392ZM108.202 35.712C107.093 35.712 106.304 35.488 105.834 35.04C105.365 34.6133 105.13 34.1013 105.13 33.504C105.13 32.5867 105.472 31.7333 106.154 30.944C106.816 30.176 107.637 29.5573 108.618 29.088C109.728 28.576 110.986 28.16 112.394 27.84C113.824 27.52 115.189 27.168 116.49 26.784C116.896 26.08 117.269 25.28 117.61 24.384C117.952 23.4667 118.261 22.5813 118.538 21.728C118.816 20.8533 119.04 20.1387 119.21 19.584C118.954 20.0533 118.624 20.6293 118.218 21.312C117.834 21.9733 117.397 22.624 116.906 23.264C116.416 23.904 115.882 24.4373 115.306 24.864C114.752 25.2907 114.165 25.504 113.546 25.504C113.312 25.504 113.024 25.4507 112.682 25.344C112.362 25.2373 112.074 25.0453 111.818 24.768C111.584 24.4693 111.466 24.032 111.466 23.456C111.466 22.9013 111.637 22.2933 111.978 21.632C112.32 20.9493 112.661 20.2773 113.002 19.616C112.896 19.616 112.8 19.6053 112.714 19.584C112.65 19.5627 112.618 19.4773 112.618 19.328C112.682 19.2 112.81 18.9227 113.002 18.496C113.194 18.0693 113.408 17.6 113.642 17.088C113.898 16.576 114.122 16.128 114.314 15.744C114.549 15.2533 114.805 14.912 115.082 14.72C115.381 14.528 115.669 14.432 115.946 14.432H117.93C117.781 14.56 117.589 14.7093 117.354 14.88C117.141 15.0293 116.938 15.264 116.746 15.584C116.17 16.5653 115.669 17.5147 115.242 18.432C114.816 19.328 114.357 20.288 113.866 21.312C113.632 21.8027 113.461 22.2507 113.354 22.656C113.248 23.0613 113.194 23.4133 113.194 23.712C113.194 24.416 113.429 24.768 113.898 24.768C114.41 24.768 115.029 24.352 115.754 23.52C116.352 22.816 116.949 21.984 117.546 21.024C118.165 20.0427 118.752 19.04 119.306 18.016C119.882 16.9707 120.384 16.0107 120.81 15.136C121.045 14.6667 121.461 14.432 122.058 14.432H123.818C123.2 14.8587 122.72 15.4133 122.378 16.096C122.058 16.7787 121.696 17.6533 121.29 18.72C120.842 19.8933 120.416 21.1093 120.01 22.368C119.605 23.6267 119.157 24.9173 118.666 26.24C119.712 25.8773 120.586 25.408 121.29 24.832C121.994 24.256 122.613 23.52 123.146 22.624C123.701 21.7067 124.256 20.608 124.81 19.328C125.066 19.328 125.194 19.424 125.194 19.616C124.725 20.5973 124.298 21.4613 123.914 22.208C123.53 22.9547 123.104 23.616 122.634 24.192C122.165 24.7467 121.578 25.2587 120.874 25.728C120.17 26.2187 119.264 26.688 118.154 27.136C117.642 28.0533 117.056 29.0027 116.394 29.984C115.754 30.9867 115.018 31.9147 114.186 32.768C113.376 33.6427 112.469 34.3467 111.466 34.88C110.485 35.4347 109.397 35.712 108.202 35.712ZM107.434 35.072C108.138 35.072 108.864 34.8587 109.61 34.432C110.357 34.0053 111.082 33.4613 111.786 32.8C112.49 32.16 113.13 31.4987 113.706 30.816C114.304 30.1547 114.784 29.568 115.146 29.056C115.253 28.9067 115.37 28.7147 115.498 28.48C115.626 28.2453 115.754 28.0213 115.882 27.808C114.837 28.0853 113.685 28.384 112.426 28.704C111.189 29.0453 110.112 29.4187 109.194 29.824C108.17 30.2507 107.37 30.8587 106.794 31.648C106.197 32.4373 105.898 33.1413 105.898 33.76C105.898 34.144 106.026 34.4533 106.282 34.688C106.517 34.944 106.901 35.072 107.434 35.072ZM125.734 25.504C125.499 25.504 125.211 25.4507 124.87 25.344C124.55 25.2373 124.262 25.0453 124.006 24.768C123.771 24.4693 123.654 24.032 123.654 23.456C123.654 22.9013 123.835 22.2613 124.198 21.536C124.561 20.8107 124.881 20.1707 125.158 19.616C124.923 19.616 124.806 19.52 124.806 19.328C124.827 19.264 124.923 19.0613 125.094 18.72C125.265 18.3787 125.467 17.9733 125.702 17.504C125.937 17.0347 126.161 16.5867 126.374 16.16C126.609 15.712 126.79 15.3707 126.918 15.136C127.174 14.6667 127.579 14.432 128.134 14.432H130.118C129.755 14.7093 129.425 15.0187 129.126 15.36C128.849 15.68 128.497 16.2773 128.07 17.152C128.07 17.152 127.995 17.3013 127.846 17.6C127.697 17.8987 127.505 18.2827 127.27 18.752C127.057 19.2 126.833 19.6587 126.598 20.128C126.385 20.5973 126.203 20.992 126.054 21.312C125.777 21.9093 125.595 22.3893 125.51 22.752C125.425 23.0933 125.382 23.4133 125.382 23.712C125.382 24.416 125.617 24.768 126.086 24.768C126.598 24.768 127.217 24.352 127.942 23.52C128.539 22.816 129.126 21.9733 129.702 20.992C130.278 20.0107 130.822 18.9973 131.334 17.952C131.867 16.9067 132.337 15.968 132.742 15.136C132.977 14.6667 133.393 14.432 133.99 14.432H135.75C135.281 14.816 134.801 15.392 134.31 16.16C133.841 16.928 133.318 17.9093 132.742 19.104C132.593 19.424 132.401 19.8293 132.166 20.32C131.931 20.8107 131.718 21.3333 131.526 21.888C131.355 22.4427 131.27 22.9973 131.27 23.552C131.27 24.2987 131.537 24.672 132.07 24.672C132.795 24.672 133.499 24.1707 134.182 23.168C134.865 22.1653 135.537 20.8853 136.198 19.328C136.369 19.328 136.465 19.3387 136.486 19.36C136.529 19.3813 136.561 19.4667 136.582 19.616C136.347 20.192 136.059 20.8213 135.718 21.504C135.398 22.1653 135.025 22.8053 134.598 23.424C134.193 24.0427 133.734 24.544 133.222 24.928C132.731 25.312 132.187 25.504 131.59 25.504C131.057 25.504 130.619 25.312 130.278 24.928C129.937 24.5227 129.766 23.9573 129.766 23.232C129.766 22.656 129.873 22.0373 130.086 21.376C129.723 22.016 129.307 22.656 128.838 23.296C128.369 23.936 127.867 24.4693 127.334 24.896C126.801 25.3013 126.267 25.504 125.734 25.504ZM138.164 25.664C137.29 25.664 136.671 25.3973 136.308 24.864C135.946 24.3307 135.764 23.68 135.764 22.912C135.764 22.3787 135.818 21.8773 135.924 21.408C136.052 20.9387 136.234 20.4053 136.468 19.808H136.404C136.234 19.808 136.148 19.7227 136.148 19.552C136.148 19.4667 136.234 19.2213 136.404 18.816C136.596 18.4107 136.831 17.92 137.108 17.344C137.407 16.768 137.706 16.1813 138.004 15.584C138.324 14.9867 138.612 14.4533 138.868 13.984C139.295 13.1947 139.764 12.384 140.276 11.552C140.788 10.6987 141.29 9.888 141.78 9.12C142.292 8.352 142.719 7.72266 143.06 7.232C143.828 6.16533 144.543 5.632 145.204 5.632H145.364C145.556 5.632 145.77 5.664 146.004 5.728C146.26 5.792 146.495 5.80266 146.708 5.76C146.388 6.10133 145.898 6.72 145.236 7.616C144.596 8.49066 143.892 9.49333 143.124 10.624C142.804 11.0933 142.399 11.7227 141.908 12.512C141.439 13.3013 140.938 14.1867 140.404 15.168C139.871 16.1493 139.37 17.152 138.9 18.176C138.452 19.1787 138.079 20.16 137.78 21.12C137.482 22.0587 137.332 22.9013 137.332 23.648C137.332 24.1387 137.418 24.48 137.588 24.672C137.759 24.864 137.972 24.96 138.228 24.96C138.548 24.96 138.922 24.7787 139.348 24.416C139.796 24.032 140.244 23.5413 140.692 22.944C141.162 22.3253 141.588 21.6533 141.972 20.928C142.356 20.1813 142.666 19.4347 142.9 18.688C143.156 17.92 143.284 17.216 143.284 16.576C143.284 15.9573 143.167 15.5093 142.932 15.232C142.719 14.9547 142.431 14.816 142.068 14.816C141.919 14.816 141.77 14.8587 141.62 14.944C141.471 15.008 141.343 15.04 141.236 15.04C141.13 15.04 141.076 14.9867 141.076 14.88C141.076 14.7733 141.183 14.656 141.396 14.528C141.631 14.4 141.972 14.336 142.42 14.336C142.826 14.336 143.231 14.4427 143.636 14.656C144.063 14.8693 144.415 15.2213 144.692 15.712C144.97 16.1813 145.108 16.8 145.108 17.568C145.108 18.4853 144.895 19.424 144.468 20.384C144.042 21.3227 143.487 22.1973 142.804 23.008C142.122 23.7973 141.364 24.4373 140.532 24.928C139.722 25.4187 138.932 25.664 138.164 25.664ZM148.601 25.504C147.726 25.504 147.076 25.1947 146.649 24.576C146.244 23.936 146.041 23.168 146.041 22.272C146.041 21.44 146.201 20.576 146.521 19.68C146.862 18.6987 147.332 17.8027 147.929 16.992C148.548 16.1813 149.22 15.5307 149.945 15.04C150.692 14.528 151.428 14.272 152.153 14.272C153.028 14.272 153.668 14.5707 154.073 15.168C154.5 15.7653 154.713 16.5227 154.713 17.44C154.713 18.08 154.606 18.752 154.393 19.456C154.18 20.16 153.892 20.8533 153.529 21.536C153.806 21.8133 154.201 21.952 154.713 21.952C155.31 21.952 155.822 21.76 156.249 21.376C156.676 20.992 157.092 20.3093 157.497 19.328C157.753 19.328 157.881 19.424 157.881 19.616C157.476 20.5973 157.006 21.3227 156.473 21.792C155.961 22.24 155.3 22.4533 154.489 22.432C153.998 22.432 153.593 22.2933 153.273 22.016C152.676 22.9973 151.961 23.8293 151.129 24.512C150.318 25.1733 149.476 25.504 148.601 25.504ZM149.049 24.8C149.54 24.8 150.03 24.5973 150.521 24.192C151.012 23.7653 151.46 23.2853 151.865 22.752C152.27 22.2187 152.558 21.76 152.729 21.376C152.388 20.7573 152.185 20.2987 152.121 20C152.078 19.68 152.057 19.4453 152.057 19.296C152.057 18.8907 152.164 18.5813 152.377 18.368C152.59 18.1547 152.804 18.048 153.017 18.048C153.316 18.048 153.572 18.176 153.785 18.432C153.828 18.1973 153.86 17.984 153.881 17.792C153.902 17.5787 153.913 17.376 153.913 17.184C153.913 16.6293 153.806 16.1813 153.593 15.84C153.401 15.4773 153.092 15.296 152.665 15.296C152.217 15.296 151.748 15.488 151.257 15.872C150.766 16.256 150.297 16.768 149.849 17.408C149.422 18.048 149.049 18.7627 148.729 19.552C148.452 20.2133 148.238 20.8427 148.089 21.44C147.94 22.016 147.865 22.5493 147.865 23.04C147.865 23.5733 147.961 24 148.153 24.32C148.345 24.64 148.644 24.8 149.049 24.8ZM158.549 25.728C157.888 25.728 157.429 25.5573 157.173 25.216C156.917 24.8747 156.789 24.4373 156.789 23.904C156.789 23.3493 156.885 22.72 157.077 22.016C157.269 21.312 157.525 20.5227 157.845 19.648C157.611 19.648 157.493 19.5413 157.493 19.328C157.664 18.9013 157.845 18.4213 158.037 17.888C158.251 17.3333 158.357 16.7147 158.357 16.032C158.357 15.6907 158.315 15.4027 158.229 15.168C158.144 14.9333 158.016 14.7947 157.845 14.752C157.845 14.752 157.952 14.7307 158.165 14.688C158.4 14.6453 158.645 14.6027 158.901 14.56C159.157 14.5173 159.328 14.496 159.413 14.496C159.541 14.4747 159.659 14.464 159.765 14.464C159.872 14.4427 159.968 14.432 160.053 14.432C160.267 14.432 160.405 14.5173 160.469 14.688C160.555 14.8587 160.587 15.232 160.565 15.808C160.544 16.3413 160.437 16.992 160.245 17.76C160.053 18.5067 159.851 19.1573 159.637 19.712C159.36 20.4373 159.104 21.1733 158.869 21.92C158.635 22.6667 158.517 23.2853 158.517 23.776C158.517 24.2027 158.635 24.48 158.869 24.608C159.04 24.672 159.189 24.704 159.317 24.704C159.808 24.704 160.288 24.4693 160.757 24C161.227 23.5307 161.664 22.9653 162.069 22.304C162.496 21.6213 162.848 20.9707 163.125 20.352C162.997 19.8613 162.933 19.2747 162.933 18.592C162.933 17.8667 163.019 17.1307 163.189 16.384C163.36 15.6373 163.627 15.0187 163.989 14.528C164.352 14.016 164.821 13.76 165.397 13.76C165.803 13.76 166.005 13.9413 166.005 14.304C166.005 14.3893 165.899 14.752 165.685 15.392C165.493 16.032 165.237 16.7893 164.917 17.664C164.597 18.5387 164.256 19.3813 163.893 20.192C163.808 20.3627 163.733 20.5333 163.669 20.704C163.755 21.0667 163.915 21.3653 164.149 21.6C164.384 21.8133 164.672 21.92 165.013 21.92C165.44 21.92 165.835 21.728 166.197 21.344C166.581 20.9387 166.976 20.2667 167.381 19.328C167.637 19.328 167.765 19.424 167.765 19.616C167.424 20.4693 167.008 21.152 166.517 21.664C166.048 22.176 165.515 22.432 164.917 22.432C164.192 22.432 163.669 22.0587 163.349 21.312C162.987 22.0587 162.56 22.7733 162.069 23.456C161.579 24.1173 161.035 24.6613 160.437 25.088C159.861 25.5147 159.232 25.728 158.549 25.728ZM174.312 25.6C173.822 25.6 173.384 25.4613 173 25.184C172.638 24.9067 172.456 24.3413 172.456 23.488C172.456 23.1253 172.478 22.784 172.52 22.464C172.584 22.144 172.659 21.8027 172.744 21.44C172.552 21.76 172.286 22.1547 171.944 22.624C171.603 23.0933 171.219 23.552 170.792 24C170.387 24.448 169.96 24.8213 169.512 25.12C169.086 25.4187 168.68 25.568 168.296 25.568C167.742 25.568 167.294 25.3227 166.952 24.832C166.611 24.32 166.44 23.6587 166.44 22.848C166.44 21.9733 166.643 21.0347 167.048 20.032C167.454 19.0293 168.008 18.0693 168.712 17.152C169.416 16.2347 170.227 15.488 171.144 14.912C172.062 14.336 173.022 14.048 174.024 14.048C174.515 14.048 174.984 14.1333 175.432 14.304C175.88 14.4533 176.275 14.7093 176.616 15.072C176.766 15.2213 176.84 15.392 176.84 15.584C176.84 15.712 176.787 15.8187 176.68 15.904C176.574 15.9893 176.435 16.0107 176.264 15.968C176.03 15.2213 175.528 14.848 174.76 14.848C174.398 14.848 173.982 14.9653 173.512 15.2C172.936 15.4987 172.318 15.9787 171.656 16.64C171.016 17.28 170.408 18.016 169.832 18.848C169.278 19.6587 168.819 20.48 168.456 21.312C168.094 22.144 167.912 22.9013 167.912 23.584C167.912 24.288 168.179 24.64 168.712 24.64C169.182 24.64 169.662 24.416 170.152 23.968C170.664 23.52 171.144 22.9653 171.592 22.304C172.062 21.6213 172.488 20.9493 172.872 20.288C173.256 19.6267 173.555 19.0933 173.768 18.688C174.088 18.112 174.387 17.632 174.664 17.248C174.942 16.864 175.336 16.672 175.848 16.672C176.083 16.672 176.318 16.704 176.552 16.768C176.787 16.832 177.032 16.8427 177.288 16.8C176.648 17.44 176.083 18.1973 175.592 19.072C175.123 19.9467 174.76 20.8107 174.504 21.664C174.248 22.496 174.12 23.2 174.12 23.776C174.12 24.416 174.334 24.736 174.76 24.736C175.102 24.736 175.464 24.544 175.848 24.16C176.254 23.776 176.638 23.296 177 22.72C177.384 22.1227 177.736 21.5253 178.056 20.928C178.376 20.3093 178.632 19.776 178.824 19.328C178.931 19.328 179.016 19.3387 179.08 19.36C179.166 19.3813 179.208 19.4667 179.208 19.616C179.187 19.7013 179.144 19.7973 179.08 19.904C179.038 19.9893 178.963 20.1493 178.856 20.384C178.686 20.7253 178.451 21.184 178.152 21.76C177.854 22.336 177.502 22.9227 177.096 23.52C176.691 24.096 176.254 24.5867 175.784 24.992C175.315 25.3973 174.824 25.6 174.312 25.6Z" fill="#7CADCF"/>
</svg>
